<?xml version="1.0" encoding="utf-8"?>
<!-- Generator: Adobe Illustrator 25.0.1, SVG Export Plug-In . SVG Version: 6.00 Build 0)  -->
<svg version="1.1" id="Layer_1" xmlns="http://www.w3.org/2000/svg" xmlns:xlink="http://www.w3.org/1999/xlink" x="0px" y="0px"
	 viewBox="0 0 150 150" style="enable-background:new 0 0 150 150;" xml:space="preserve">
<style type="text/css">
	.st0{opacity:0.53;fill:#007A3E;}
</style>
<path class="st0" d="M21.6,1.6l-0.2-0.1l0.1,0.2c1,2.3-0.1,4.8-1.2,7.5c-0.9,2.1-1.9,4.3-1.8,6.5c0.1,2.4,0.9,5.7,4.4,8
	c0.4,0.2,0.6,0.3,0.7,0.2c0.1-0.1,0.1-0.4-0.1-0.7c-1.9-4-1.9-4.8-1.9-7.1c0-1.5,0.4-2.9,0.8-4.3c0.4-1.5,0.8-2.9,0.9-4.6
	c0.1,1,0.1,2.5-0.2,4.1c-0.1,0.4-0.2,0.8-0.3,1.3c-0.4,1.8-0.8,3.9-0.5,6.6c0.4,3.8,2.6,7.2,4.4,9.1c-0.3,0.1-0.5,0.2-0.8,0.2
	c-0.5,0.1-1.8,0-2.8-1.1c-0.2-0.2-0.4-0.4-0.6-0.6c-1.2-1.4-2.6-2.9-4.5-3.9c-2.8-1.5-5.9-1.7-8.7-0.5c-0.9,0.4-1.9,1-2.3,1.4
	l-0.1,0.2l0.2,0c2,0,3.4,1.6,4.9,3.3c1.2,1.3,2.4,2.7,4,3.4c1.7,0.7,4.4,1.2,7.1-0.6c0.3-0.2,0.4-0.3,0.4-0.5c0-0.1-0.1-0.1-0.3-0.2
	c1.7,0,3.1-0.4,3.8-0.6c0,0.1-0.1,0.3-0.1,0.4c-0.1,0.2-0.4,1.2-1.6,1.6c-0.2,0.1-0.4,0.1-0.6,0.2c-1.3,0.4-2.8,0.8-4.2,1.7
	c-1.9,1.4-3.1,3.4-3.3,5.8c-0.1,0.8,0,1.7,0.2,2l0.1,0.2l0.1-0.2c0.7-1.3,2.2-1.8,3.8-2.2c1.3-0.4,2.7-0.8,3.7-1.6
	c1.1-0.9,2.3-2.6,2-5c0-0.2-0.1-0.4-0.2-0.4c0,0-0.1,0-0.1,0c0.5-1,0.8-2,0.8-2.7c0,0,0,0,0,0c0,0,0-0.4,0-0.4c0-0.1,0-0.1-0.1-0.2
	l0,0c0,0-0.8-0.5-1.5-1.5c-0.3-0.5-1-2.2-0.3-3.9c0.1-0.3,0.3-0.7,0.5-1c0.9-2.1,2-4.5,2.2-7.3c0.3-4-1.2-7.7-4-10.5
	C23.6,2.7,22.3,1.8,21.6,1.6z M28.2,14c-0.2,2.7-1.2,5.1-2.2,7.2c-0.2,0.4-0.3,0.7-0.5,1c-0.8,1.8-0.1,3.6,0.3,4.1
	c0.6,0.9,1.3,1.4,1.5,1.5l0,0l0.1,0c0,0.1,0,0.3,0,0.3l0,0c-0.1,1.3-0.9,3.5-2.4,5.1c-1.1,1.1-2.2,1.7-3.1,2.2
	c-0.2,0.1-0.5,0.3-0.7,0.4c-1.8,1-2.7,2.2-2.7,2.3l0.2,0.1c1-1,2.1-1.5,3.2-2c0.8-0.4,1.6-0.7,2.3-1.3c1.1-0.9,1.5-1.2,2.6-3.6
	c0.1-0.1,0.1-0.2,0.1-0.2c0,0,0,0.1,0.1,0.2c0.3,2.4-0.9,4-1.9,4.9c-1,0.8-2.3,1.2-3.6,1.6c-1.6,0.5-3.1,0.9-3.9,2.1
	c-0.1-0.4-0.2-1.1-0.1-1.7c0.2-2.3,1.3-4.3,3.2-5.6c1.3-0.9,2.8-1.4,4.1-1.7c0.2-0.1,0.4-0.1,0.6-0.2c1.2-0.4,1.6-1.5,1.7-1.7
	c0.1-0.2,0.1-0.4,0.1-0.6l0-0.2l-0.2,0.1c-0.9,0.3-4.2,1.2-7.5,0.1c-1.9-0.6-3.3-1.6-4.5-2.5c-0.3-0.2-0.6-0.4-0.9-0.6
	c-2.2-1.5-4.2-1.9-4.2-1.9l0,0.2c1.8,0.6,3,1.6,4.2,2.6c0.9,0.8,1.8,1.5,2.9,2c1.7,0.8,2.3,1.1,5.8,1c0.3,0,0.4,0,0.4,0
	c0,0,0,0.1-0.3,0.3c-2.7,1.7-5.2,1.3-6.9,0.5c-1.6-0.7-2.8-2-4-3.3c-1.5-1.6-2.9-3.2-4.8-3.3c0.4-0.4,1.3-0.9,2.1-1.2
	c2.8-1.1,5.9-0.9,8.6,0.5c1.9,1,3.2,2.5,4.4,3.9c0.2,0.2,0.4,0.4,0.6,0.7c1.1,1.2,2.6,1.2,3,1.1c0.4-0.1,0.7-0.2,1-0.3l0.2-0.1
	L26.9,28c-1.7-1.8-3.9-5.2-4.4-9c-0.3-2.6,0.1-4.7,0.5-6.5c0.1-0.5,0.2-0.9,0.3-1.3c0.6-3.4-0.1-5.9-0.1-5.9l-0.2,0
	c0.3,2.4-0.3,4.4-0.8,6.3c-0.4,1.5-0.8,2.9-0.8,4.4c0,2.3-0.1,3.2,1.9,7.2c0.2,0.3,0.2,0.5,0.1,0.5c0,0-0.1,0-0.5-0.2
	c-3.4-2.2-4.2-5.5-4.3-7.8c-0.1-2.2,0.9-4.3,1.8-6.4c1.1-2.6,2.2-5.1,1.3-7.4c0.7,0.3,1.8,1.1,2.5,1.8C27.1,6.5,28.5,10.1,28.2,14z
	 M26.1,32.2c-0.8,1.6-1.2,1.9-2.1,2.7c-0.7,0.5-1.5,0.9-2.3,1.3c-0.6,0.3-1.3,0.6-1.9,1c0.4-0.3,0.9-0.7,1.5-1
	c0.2-0.1,0.5-0.2,0.7-0.4c1-0.5,2.1-1.1,3.2-2.2C25.5,33.1,25.8,32.7,26.1,32.2z M22.5,29.1c-3.1,0.1-3.8-0.2-5.3-1
	c-1-0.5-1.9-1.2-2.8-2c-0.8-0.7-1.7-1.4-2.7-2c0.7,0.3,1.6,0.7,2.5,1.3c0.3,0.2,0.6,0.4,0.8,0.6c1.2,0.9,2.5,1.8,4.5,2.5
	C20.6,28.9,21.6,29.1,22.5,29.1z"/>
<path class="st0" d="M59.9,1.6l-0.2-0.1l0.1,0.2c1,2.3-0.1,4.8-1.2,7.5c-0.9,2.1-1.9,4.3-1.8,6.5c0.1,2.4,0.9,5.7,4.4,8
	c0.4,0.2,0.6,0.3,0.7,0.2c0.1-0.1,0.1-0.4-0.1-0.7c-1.9-4-1.9-4.8-1.9-7.1c0-1.5,0.4-2.9,0.8-4.3c0.4-1.5,0.8-2.9,0.9-4.6
	c0.1,1,0.1,2.5-0.2,4.1c-0.1,0.4-0.2,0.8-0.3,1.3c-0.4,1.8-0.8,3.9-0.5,6.6c0.4,3.8,2.6,7.2,4.4,9.1c-0.3,0.1-0.5,0.2-0.8,0.2
	c-0.5,0.1-1.8,0-2.8-1.1c-0.2-0.2-0.4-0.4-0.6-0.6c-1.2-1.4-2.6-2.9-4.5-3.9c-2.8-1.5-5.9-1.7-8.7-0.5c-0.9,0.4-1.9,1-2.3,1.4
	l-0.1,0.2l0.2,0c2,0,3.4,1.6,4.9,3.3c1.2,1.3,2.4,2.7,4,3.4c1.7,0.7,4.4,1.2,7.1-0.6c0.3-0.2,0.4-0.3,0.4-0.5c0-0.1-0.1-0.1-0.3-0.2
	c1.7,0,3.1-0.4,3.8-0.6c0,0.1-0.1,0.3-0.1,0.4c-0.1,0.2-0.4,1.2-1.6,1.6c-0.2,0.1-0.4,0.1-0.6,0.2c-1.3,0.4-2.8,0.8-4.2,1.7
	c-1.9,1.4-3.1,3.4-3.3,5.8c-0.1,0.8,0,1.7,0.2,2l0.1,0.2l0.1-0.2c0.7-1.3,2.2-1.8,3.8-2.2c1.3-0.4,2.7-0.8,3.7-1.6
	c1.1-0.9,2.3-2.6,2-5c0-0.2-0.1-0.4-0.2-0.4c0,0-0.1,0-0.1,0c0.5-1,0.8-2,0.8-2.7c0,0,0,0,0,0c0,0,0-0.4,0-0.4c0-0.1,0-0.1-0.1-0.2
	l0,0c0,0-0.8-0.5-1.5-1.5c-0.3-0.5-1-2.2-0.3-3.9c0.1-0.3,0.3-0.7,0.5-1c0.9-2.1,2-4.5,2.2-7.3c0.3-4-1.2-7.7-4-10.5
	C61.9,2.7,60.6,1.8,59.9,1.6z M66.5,14c-0.2,2.7-1.2,5.1-2.2,7.2c-0.2,0.4-0.3,0.7-0.5,1c-0.8,1.8-0.1,3.6,0.3,4.1
	c0.6,1,1.4,1.4,1.5,1.5l0,0c0,0.1,0,0.3,0,0.3l0,0c-0.1,1.3-0.9,3.5-2.4,5.1c-1.1,1.1-2.2,1.7-3.1,2.2c-0.2,0.1-0.5,0.3-0.7,0.4
	c-1.8,1-2.7,2.2-2.7,2.3l0.2,0.1c1-1,2.1-1.5,3.2-2c0.8-0.4,1.6-0.7,2.3-1.3c1.1-0.9,1.5-1.2,2.6-3.6c0-0.1,0.1-0.2,0.1-0.2
	c0,0,0,0.1,0.1,0.2c0.3,2.4-0.9,4-1.9,4.9c-1,0.8-2.3,1.2-3.6,1.6c-1.6,0.5-3.1,0.9-3.9,2.1c-0.1-0.4-0.2-1.1-0.1-1.7
	c0.2-2.3,1.3-4.3,3.2-5.6c1.3-0.9,2.8-1.4,4.1-1.7c0.2-0.1,0.4-0.1,0.6-0.2c1.2-0.4,1.6-1.5,1.7-1.7c0.1-0.2,0.1-0.4,0.1-0.6l0-0.2
	l-0.2,0.1c-0.9,0.3-4.2,1.2-7.5,0.1c-1.9-0.6-3.3-1.6-4.5-2.4c-0.3-0.2-0.6-0.4-0.9-0.6c-2.2-1.5-4.2-1.9-4.2-1.9l0,0.2
	c1.8,0.6,3,1.6,4.2,2.6c0.9,0.8,1.8,1.5,2.9,2c1.7,0.8,2.3,1.1,5.8,1c0.3,0,0.4,0,0.4,0c0,0,0,0.1-0.3,0.3c-2.7,1.7-5.2,1.2-6.9,0.5
	c-1.6-0.7-2.8-2-4-3.3c-1.5-1.6-2.9-3.2-4.8-3.3c0.4-0.4,1.3-0.9,2.1-1.2c2.8-1.1,5.9-0.9,8.6,0.5c1.9,1,3.2,2.5,4.4,3.9
	c0.2,0.2,0.4,0.4,0.6,0.6c1.1,1.2,2.6,1.2,3,1.1c0.4-0.1,0.7-0.2,1-0.3l0.2-0.1L65.2,28c-1.7-1.8-3.9-5.2-4.4-9
	c-0.3-2.6,0.1-4.7,0.5-6.5c0.1-0.5,0.2-0.9,0.3-1.3c0.6-3.4-0.1-5.9-0.1-5.9l-0.2,0c0.3,2.4-0.3,4.4-0.8,6.3
	c-0.4,1.5-0.8,2.9-0.8,4.4c0,2.3-0.1,3.2,1.9,7.2c0.2,0.3,0.2,0.5,0.1,0.5c0,0-0.1,0-0.5-0.2c-3.4-2.2-4.2-5.5-4.3-7.8
	c-0.1-2.2,0.9-4.3,1.8-6.4c1.1-2.6,2.2-5.1,1.3-7.4c0.7,0.3,1.8,1.1,2.5,1.8C65.4,6.5,66.8,10.1,66.5,14z M64.4,32.2
	c-0.8,1.6-1.2,1.9-2.1,2.7c-0.7,0.5-1.5,0.9-2.3,1.3c-0.6,0.3-1.3,0.6-1.9,1c0.4-0.3,0.9-0.7,1.5-1c0.2-0.1,0.5-0.2,0.7-0.4
	c1-0.5,2.1-1.1,3.2-2.2C63.8,33.1,64.1,32.7,64.4,32.2z M60.8,29.1c-3.1,0.1-3.8-0.2-5.3-1c-1-0.5-1.9-1.2-2.8-2
	c-0.8-0.7-1.7-1.4-2.7-2c0.7,0.3,1.6,0.7,2.5,1.3c0.3,0.2,0.6,0.4,0.8,0.6c1.2,0.9,2.5,1.8,4.5,2.5C58.8,28.9,59.8,29.1,60.8,29.1z"
	/>
<path class="st0" d="M97.7,1.6l-0.2-0.1l0.1,0.2c1,2.3-0.1,4.8-1.2,7.5c-0.9,2.1-1.9,4.3-1.8,6.5c0.1,2.4,0.9,5.7,4.4,8
	c0.4,0.2,0.6,0.3,0.7,0.2c0.1-0.1,0.1-0.4-0.1-0.7c-1.9-4-1.9-4.8-1.9-7.1c0-1.5,0.4-2.9,0.8-4.3c0.4-1.5,0.8-2.9,0.9-4.6
	c0.1,1,0.1,2.5-0.2,4.1c-0.1,0.4-0.2,0.8-0.3,1.3c-0.4,1.8-0.8,3.9-0.5,6.6c0.4,3.8,2.6,7.2,4.4,9.1c-0.3,0.1-0.5,0.2-0.8,0.2
	c-0.5,0.1-1.8,0-2.8-1.1c-0.2-0.2-0.4-0.4-0.6-0.6c-1.2-1.4-2.6-2.9-4.5-3.9c-2.8-1.5-5.9-1.7-8.7-0.5c-0.9,0.4-1.9,1-2.3,1.4
	l-0.1,0.2l0.2,0c2,0,3.4,1.6,4.9,3.3c1.2,1.3,2.4,2.7,4,3.4c1.7,0.7,4.4,1.2,7.1-0.6c0.3-0.2,0.4-0.3,0.4-0.5c0-0.1-0.1-0.1-0.3-0.2
	c1.7,0,3.1-0.4,3.8-0.6c0,0.1-0.1,0.3-0.1,0.4c-0.1,0.2-0.4,1.2-1.6,1.6c-0.2,0.1-0.4,0.1-0.6,0.2c-1.3,0.4-2.8,0.8-4.2,1.7
	c-1.9,1.4-3.1,3.4-3.3,5.8c-0.1,0.8,0,1.7,0.2,2l0.1,0.2l0.1-0.2c0.7-1.3,2.2-1.8,3.8-2.2c1.3-0.4,2.7-0.8,3.7-1.6
	c1.1-0.9,2.3-2.6,2-5c0-0.2-0.1-0.4-0.2-0.4c0,0-0.1,0-0.1,0c0.5-1,0.8-2,0.8-2.7c0,0,0,0,0,0c0,0,0-0.4,0-0.4c0-0.1,0-0.1-0.1-0.2
	l0,0c0,0-0.8-0.5-1.5-1.5c-0.3-0.5-1-2.1-0.3-3.9c0.1-0.3,0.3-0.7,0.5-1c0.9-2.1,2-4.5,2.2-7.3c0.3-4-1.2-7.7-4-10.5
	C99.7,2.7,98.4,1.8,97.7,1.6z M104.4,14c-0.2,2.7-1.2,5.1-2.2,7.2c-0.2,0.4-0.3,0.7-0.5,1c-0.8,1.8-0.1,3.6,0.3,4.1
	c0.6,1,1.4,1.4,1.5,1.5l0,0c0,0.1,0,0.3,0,0.3l0,0c-0.1,1.3-0.9,3.5-2.4,5.1c-1.1,1.1-2.2,1.7-3.1,2.2c-0.2,0.1-0.5,0.3-0.7,0.4
	c-1.8,1-2.7,2.2-2.7,2.3l0.2,0.1c1-1,2.1-1.5,3.2-2c0.8-0.4,1.6-0.7,2.3-1.3c1.1-0.9,1.5-1.2,2.6-3.6c0.1-0.1,0.1-0.2,0.1-0.2
	c0,0,0,0.1,0.1,0.2c0.3,2.4-0.9,4-1.9,4.9c-1,0.8-2.3,1.2-3.6,1.6c-1.6,0.5-3.1,0.9-3.9,2.1c-0.1-0.4-0.2-1.1-0.1-1.7
	c0.2-2.3,1.3-4.3,3.2-5.6c1.3-0.9,2.8-1.4,4.1-1.7c0.2-0.1,0.4-0.1,0.6-0.2c1.2-0.4,1.6-1.5,1.7-1.7c0.1-0.2,0.1-0.4,0.1-0.6l0-0.2
	l-0.2,0.1c-0.9,0.3-4.2,1.2-7.5,0.1c-1.9-0.6-3.3-1.6-4.5-2.5c-0.3-0.2-0.6-0.4-0.9-0.6c-2.2-1.5-4.2-1.9-4.2-1.9l0,0.2
	c1.8,0.6,3,1.6,4.2,2.6c0.9,0.8,1.8,1.5,2.9,2c1.7,0.8,2.3,1.1,5.8,1c0.3,0,0.4,0,0.4,0c0,0,0,0.1-0.3,0.3c-2.7,1.7-5.2,1.3-6.9,0.5
	c-1.6-0.7-2.8-2-4-3.3c-1.5-1.6-2.9-3.2-4.8-3.3c0.4-0.4,1.3-0.9,2.1-1.2c2.8-1.1,5.9-0.9,8.6,0.5c1.9,1,3.2,2.5,4.4,3.9
	c0.2,0.2,0.4,0.4,0.6,0.7c1.1,1.2,2.6,1.2,3,1.1c0.4-0.1,0.7-0.2,1-0.3l0.2-0.1l-0.2-0.1c-1.7-1.8-3.9-5.2-4.4-9
	c-0.3-2.6,0.1-4.7,0.5-6.5c0.1-0.5,0.2-0.9,0.3-1.3c0.6-3.4-0.1-5.9-0.1-5.9l-0.2,0c0.3,2.4-0.3,4.4-0.8,6.3
	c-0.4,1.5-0.8,2.9-0.8,4.4c0,2.3-0.1,3.2,1.9,7.2c0.2,0.3,0.2,0.5,0.1,0.5c0,0-0.1,0-0.5-0.2c-3.4-2.2-4.2-5.5-4.3-7.8
	c-0.1-2.2,0.9-4.3,1.8-6.4c1.1-2.6,2.2-5.1,1.3-7.4c0.7,0.3,1.8,1.1,2.5,1.8C103.2,6.5,104.6,10.1,104.4,14z M102.2,32.2
	c-0.8,1.6-1.2,1.9-2.1,2.7c-0.7,0.5-1.5,0.9-2.3,1.3c-0.6,0.3-1.3,0.6-1.9,1c0.4-0.3,0.9-0.7,1.5-1c0.2-0.1,0.5-0.2,0.7-0.4
	c1-0.5,2.1-1.1,3.2-2.2C101.6,33.1,101.9,32.7,102.2,32.2z M98.6,29.1c-3.1,0.1-3.8-0.2-5.3-1c-1-0.5-1.9-1.2-2.8-2
	c-0.8-0.7-1.7-1.4-2.7-2c0.7,0.3,1.6,0.7,2.5,1.3c0.3,0.2,0.6,0.4,0.8,0.6c1.2,0.9,2.5,1.8,4.5,2.5C96.7,28.9,97.7,29.1,98.6,29.1z"
	/>
<path class="st0" d="M135.6,1.6l-0.2-0.1l0.1,0.2c1,2.3-0.1,4.8-1.2,7.5c-0.9,2.1-1.9,4.3-1.8,6.5c0.1,2.4,0.9,5.7,4.4,8
	c0.4,0.2,0.6,0.3,0.7,0.2c0.1-0.1,0.1-0.4-0.1-0.7c-1.9-4-1.9-4.8-1.9-7.1c0-1.5,0.4-2.9,0.8-4.3c0.4-1.5,0.8-2.9,0.9-4.6
	c0.1,1,0.1,2.5-0.2,4.1c-0.1,0.4-0.2,0.8-0.3,1.3c-0.4,1.8-0.8,3.9-0.5,6.6c0.4,3.8,2.6,7.2,4.4,9.1c-0.3,0.1-0.5,0.2-0.8,0.2
	c-0.5,0.1-1.8,0-2.8-1.1c-0.2-0.2-0.4-0.4-0.6-0.6c-1.2-1.4-2.6-2.9-4.5-3.9c-2.8-1.5-5.9-1.7-8.7-0.5c-0.9,0.4-1.9,1-2.3,1.4
	l-0.1,0.2l0.2,0c2,0,3.4,1.6,4.9,3.3c1.2,1.3,2.4,2.7,4,3.4c1.7,0.7,4.4,1.2,7.1-0.6c0.3-0.2,0.4-0.3,0.4-0.5c0-0.1-0.1-0.1-0.3-0.2
	c1.7,0,3.1-0.4,3.8-0.6c0,0.2-0.1,0.3-0.1,0.4c-0.1,0.2-0.4,1.2-1.6,1.6c-0.2,0.1-0.4,0.1-0.6,0.2c-1.3,0.4-2.8,0.8-4.2,1.7
	c-1.9,1.4-3.1,3.4-3.3,5.8c-0.1,0.8,0,1.7,0.2,2l0.1,0.2l0.1-0.2c0.7-1.3,2.2-1.8,3.8-2.2c1.3-0.4,2.7-0.8,3.7-1.6
	c1.1-0.9,2.3-2.6,2-5c0-0.2-0.1-0.4-0.2-0.4c0,0-0.1,0-0.1,0c0.5-1,0.7-2,0.8-2.7c0,0,0,0,0,0c0,0,0-0.2,0-0.3l0-0.1
	c0-0.1,0-0.1,0-0.1l-0.1,0c0,0-0.8-0.5-1.5-1.5c-0.3-0.5-1-2.1-0.3-3.9c0.1-0.3,0.3-0.7,0.5-1c0.9-2.1,2-4.5,2.2-7.3
	c0.2-4-1.2-7.7-4-10.5C137.5,2.7,136.3,1.8,135.6,1.6z M142.2,14c-0.2,2.7-1.2,5.1-2.2,7.2c-0.2,0.4-0.3,0.7-0.5,1
	c-0.8,1.8-0.1,3.6,0.3,4.1c0.6,0.9,1.3,1.4,1.5,1.5v0l0,0l0,0.1c0,0.1,0,0.2,0,0.2l0,0c-0.1,1.3-0.9,3.5-2.4,5.1
	c-1.1,1.1-2.2,1.7-3.1,2.2c-0.2,0.1-0.5,0.3-0.7,0.4c-1.8,1-2.7,2.2-2.7,2.3l0.2,0.1c1-1,2.1-1.5,3.2-2c0.8-0.4,1.6-0.7,2.3-1.3
	c1.1-0.9,1.5-1.2,2.6-3.6c0-0.1,0.1-0.2,0.1-0.2c0,0,0,0.1,0.1,0.2c0.3,2.4-0.9,4-1.9,4.9c-1,0.8-2.3,1.2-3.6,1.6
	c-1.6,0.5-3.1,0.9-3.9,2.1c-0.1-0.4-0.2-1.1-0.1-1.7c0.2-2.3,1.3-4.3,3.2-5.6c1.3-0.9,2.8-1.4,4.1-1.7c0.2-0.1,0.4-0.1,0.6-0.2
	c1.2-0.4,1.6-1.5,1.7-1.7c0.1-0.2,0.1-0.4,0.1-0.6l0-0.2l-0.2,0.1c-0.9,0.3-4.2,1.2-7.5,0.1c-1.9-0.6-3.3-1.6-4.5-2.5
	c-0.3-0.2-0.6-0.4-0.9-0.6c-2.2-1.5-4.2-1.9-4.2-1.9l0,0.2c1.8,0.6,3,1.6,4.2,2.6c0.9,0.8,1.8,1.5,2.9,2c1.7,0.8,2.3,1.1,5.8,1
	c0.3,0,0.4,0,0.4,0c0,0,0,0.1-0.3,0.3c-2.7,1.7-5.2,1.2-6.9,0.5c-1.6-0.7-2.8-2-4-3.3c-1.5-1.6-2.9-3.2-4.8-3.3
	c0.4-0.4,1.3-0.9,2.1-1.2c2.8-1.1,5.9-0.9,8.6,0.5c1.9,1,3.2,2.5,4.4,3.9c0.2,0.2,0.4,0.4,0.6,0.7c1.1,1.2,2.6,1.2,3,1.1
	c0.4-0.1,0.7-0.2,1-0.3l0.2-0.1l-0.2-0.1c-1.7-1.8-3.9-5.2-4.4-9c-0.3-2.6,0.1-4.7,0.5-6.5c0.1-0.5,0.2-0.9,0.3-1.3
	c0.6-3.4-0.1-5.9-0.1-5.9l-0.2,0c0.3,2.4-0.3,4.4-0.8,6.3c-0.4,1.5-0.8,2.9-0.8,4.4c0,2.3-0.1,3.2,1.9,7.2c0.2,0.3,0.2,0.5,0.1,0.5
	c0,0-0.1,0-0.5-0.2c-3.4-2.2-4.2-5.5-4.3-7.8c-0.1-2.2,0.9-4.3,1.8-6.4c1.1-2.6,2.2-5.1,1.3-7.4c0.7,0.3,1.8,1.1,2.5,1.8
	C141,6.5,142.4,10.1,142.2,14z M140.1,32.2c-0.8,1.6-1.2,1.9-2.1,2.7c-0.7,0.5-1.5,0.9-2.3,1.3c-0.6,0.3-1.3,0.6-1.9,1
	c0.4-0.3,0.9-0.7,1.5-1c0.2-0.1,0.5-0.2,0.7-0.4c1-0.5,2.1-1.1,3.2-2.2C139.5,33.1,139.8,32.7,140.1,32.2z M136.4,29.1
	c-3.1,0.1-3.8-0.2-5.3-1c-1-0.5-1.9-1.2-2.8-2c-0.8-0.7-1.7-1.4-2.7-2c0.7,0.3,1.6,0.7,2.5,1.3c0.3,0.2,0.6,0.4,0.8,0.6
	c1.2,0.9,2.5,1.8,4.5,2.5C134.5,28.9,135.5,29.1,136.4,29.1z"/>
<path class="st0" d="M21.6,57.1L21.4,57l0.1,0.2c1,2.3-0.1,4.8-1.2,7.5c-0.9,2.1-1.9,4.3-1.8,6.5c0.1,2.4,0.9,5.7,4.4,8
	c0.4,0.2,0.6,0.3,0.7,0.2c0.1-0.1,0.1-0.4-0.1-0.7c-1.9-4-1.9-4.8-1.9-7.1c0-1.5,0.4-2.9,0.8-4.3c0.4-1.5,0.8-2.9,0.9-4.6
	c0.1,1,0.1,2.5-0.2,4.1c-0.1,0.4-0.2,0.8-0.3,1.3c-0.4,1.8-0.8,3.9-0.5,6.6c0.4,3.8,2.6,7.2,4.4,9.1c-0.3,0.1-0.5,0.2-0.8,0.2
	c-0.5,0.1-1.8,0-2.8-1.1c-0.2-0.2-0.4-0.4-0.6-0.6c-1.2-1.4-2.6-2.9-4.5-3.9c-2.8-1.5-5.9-1.7-8.7-0.5c-0.9,0.4-1.9,1-2.3,1.4
	l-0.1,0.2l0.2,0c2,0,3.4,1.6,4.9,3.3c1.2,1.3,2.4,2.7,4,3.4c1.7,0.7,4.4,1.2,7.1-0.6c0.3-0.2,0.4-0.3,0.4-0.5c0-0.1-0.1-0.1-0.3-0.2
	c1.7,0,3.1-0.4,3.8-0.6c0,0.1-0.1,0.3-0.1,0.4c-0.1,0.2-0.4,1.2-1.6,1.6c-0.2,0.1-0.4,0.1-0.6,0.2c-1.3,0.4-2.8,0.8-4.2,1.7
	c-1.9,1.4-3.1,3.4-3.3,5.8c-0.1,0.8,0,1.7,0.2,2l0.1,0.2l0.1-0.2c0.7-1.3,2.2-1.8,3.8-2.2c1.3-0.4,2.7-0.8,3.7-1.6
	c1.1-0.9,2.3-2.6,2-5c0-0.2-0.1-0.4-0.2-0.4c0,0-0.1,0-0.1,0c0.5-1,0.8-2,0.8-2.7c0,0,0,0,0,0c0,0,0-0.4,0-0.4c0-0.1,0-0.1-0.1-0.2
	l0,0c0,0-0.8-0.5-1.5-1.5c-0.3-0.5-1-2.2-0.3-3.9c0.1-0.3,0.3-0.7,0.5-1c0.9-2.1,2-4.5,2.2-7.3c0.3-4-1.2-7.7-4-10.5
	C23.6,58.2,22.3,57.3,21.6,57.1z M28.2,69.5c-0.2,2.7-1.2,5.1-2.2,7.2c-0.2,0.4-0.3,0.7-0.5,1c-0.8,1.8-0.1,3.6,0.3,4.1
	c0.6,1,1.4,1.4,1.5,1.5l0,0c0,0.1,0,0.3,0,0.3l0,0c-0.1,1.3-0.9,3.5-2.4,5.1c-1.1,1.1-2.2,1.7-3.1,2.2c-0.2,0.1-0.5,0.3-0.7,0.4
	c-1.8,1-2.7,2.2-2.7,2.3l0.2,0.1c1-1,2.1-1.5,3.2-2c0.8-0.4,1.6-0.7,2.3-1.3c1.1-0.9,1.5-1.2,2.6-3.6c0.1-0.1,0.1-0.2,0.1-0.2
	c0,0,0,0.1,0.1,0.2c0.3,2.4-0.9,4-1.9,4.9c-1,0.8-2.3,1.2-3.6,1.6c-1.6,0.5-3.1,0.9-3.9,2.1c-0.1-0.4-0.2-1.1-0.1-1.7
	c0.2-2.3,1.3-4.3,3.2-5.6c1.3-0.9,2.8-1.4,4.1-1.7c0.2-0.1,0.4-0.1,0.6-0.2c1.2-0.4,1.6-1.5,1.7-1.7c0.1-0.2,0.1-0.4,0.1-0.6l0-0.2
	l-0.2,0.1c-0.9,0.3-4.2,1.2-7.5,0.1c-1.9-0.6-3.3-1.6-4.5-2.5c-0.3-0.2-0.6-0.4-0.9-0.6c-2.2-1.5-4.2-1.9-4.2-1.9l0,0.2
	c1.8,0.6,3,1.6,4.2,2.6c0.9,0.8,1.8,1.5,2.9,2c1.7,0.8,2.3,1.1,5.8,1c0.3,0,0.4,0,0.4,0c0,0,0,0.1-0.3,0.3c-2.7,1.7-5.2,1.3-6.9,0.5
	c-1.6-0.7-2.8-2-4-3.3c-1.5-1.6-2.9-3.2-4.8-3.3c0.4-0.4,1.3-0.9,2.1-1.2c2.8-1.1,5.9-0.9,8.6,0.5c1.9,1,3.2,2.5,4.4,3.9
	c0.2,0.2,0.4,0.4,0.6,0.7c1.1,1.2,2.5,1.2,3,1.1c0.4-0.1,0.7-0.2,1-0.3l0.2-0.1l-0.2-0.1c-1.7-1.8-3.9-5.2-4.4-9
	c-0.3-2.6,0.1-4.7,0.5-6.5c0.1-0.5,0.2-0.9,0.3-1.3c0.6-3.4-0.1-5.9-0.1-5.9l-0.2,0c0.3,2.4-0.3,4.4-0.8,6.3
	c-0.4,1.5-0.8,2.9-0.8,4.4c0,2.3-0.1,3.2,1.9,7.2c0.2,0.3,0.2,0.5,0.1,0.5c0,0-0.1,0-0.5-0.2c-3.4-2.2-4.2-5.5-4.3-7.8
	c-0.1-2.2,0.9-4.3,1.8-6.4c1.1-2.6,2.2-5.1,1.3-7.4c0.7,0.3,1.8,1.1,2.5,1.8C27.1,61.9,28.5,65.6,28.2,69.5z M26.1,87.7
	c-0.8,1.6-1.2,1.9-2.1,2.7c-0.7,0.5-1.5,0.9-2.3,1.3c-0.6,0.3-1.3,0.6-1.9,1c0.4-0.3,0.9-0.7,1.5-1c0.2-0.1,0.5-0.2,0.7-0.4
	c1-0.5,2.1-1.1,3.2-2.2C25.5,88.5,25.8,88.1,26.1,87.7z M22.5,84.6c-3.1,0.1-3.8-0.2-5.3-1c-1-0.5-1.9-1.2-2.8-2
	c-0.8-0.7-1.7-1.4-2.7-2c0.7,0.3,1.6,0.7,2.5,1.3c0.3,0.2,0.6,0.4,0.8,0.6c1.2,0.9,2.5,1.8,4.5,2.5C20.6,84.4,21.6,84.6,22.5,84.6z"
	/>
<path class="st0" d="M59.9,57.1L59.7,57l0.1,0.2c1,2.3-0.1,4.8-1.2,7.5c-0.9,2.1-1.9,4.3-1.8,6.5c0.1,2.4,0.9,5.7,4.4,8
	c0.4,0.2,0.6,0.3,0.7,0.2c0.1-0.1,0.1-0.4-0.1-0.7c-1.9-4-1.9-4.8-1.9-7.1c0-1.5,0.4-2.9,0.8-4.3c0.4-1.5,0.8-2.9,0.9-4.6
	c0.1,1,0.1,2.5-0.2,4.1c-0.1,0.4-0.2,0.8-0.3,1.3c-0.4,1.8-0.8,3.9-0.5,6.6c0.4,3.8,2.6,7.2,4.4,9.1c-0.3,0.1-0.5,0.2-0.8,0.2
	c-0.5,0.1-1.8,0-2.8-1.1c-0.2-0.2-0.4-0.4-0.6-0.6c-1.2-1.4-2.6-2.9-4.5-3.9c-2.8-1.5-5.9-1.7-8.7-0.5c-0.9,0.4-1.9,1-2.3,1.4
	l-0.1,0.2l0.2,0c2,0,3.4,1.6,4.9,3.3c1.2,1.3,2.4,2.7,4,3.4c1.7,0.7,4.4,1.2,7.1-0.6c0.3-0.2,0.4-0.3,0.4-0.5c0-0.1-0.1-0.1-0.3-0.2
	c1.7,0,3.1-0.4,3.8-0.6c0,0.1-0.1,0.3-0.1,0.4c-0.1,0.2-0.4,1.2-1.6,1.6c-0.2,0.1-0.4,0.1-0.6,0.2c-1.3,0.4-2.8,0.8-4.2,1.7
	c-1.9,1.4-3.1,3.4-3.3,5.8c-0.1,0.8,0,1.7,0.2,2l0.1,0.2l0.1-0.2c0.7-1.3,2.2-1.8,3.8-2.2c1.3-0.4,2.7-0.8,3.7-1.6
	c1.1-0.9,2.3-2.6,2-5c0-0.2-0.1-0.4-0.2-0.4c0,0-0.1,0-0.1,0c0.5-1,0.7-2,0.8-2.7c0,0,0,0,0,0c0,0,0-0.4,0-0.4c0-0.1,0-0.1-0.1-0.2
	l0,0c0,0-0.8-0.5-1.5-1.5c-0.3-0.5-1-2.2-0.3-3.9c0.1-0.3,0.3-0.7,0.5-1c0.9-2.1,2-4.5,2.2-7.3c0.3-4-1.2-7.7-4-10.5
	C61.9,58.2,60.6,57.3,59.9,57.1z M66.5,69.5c-0.2,2.7-1.2,5.1-2.2,7.2c-0.2,0.4-0.3,0.7-0.5,1c-0.8,1.8-0.1,3.6,0.3,4.1
	c0.6,1,1.4,1.4,1.5,1.5l0,0c0,0.1,0,0.3,0,0.3l0,0c-0.1,1.3-0.9,3.5-2.4,5.1c-1.1,1.1-2.2,1.7-3.1,2.2c-0.2,0.1-0.5,0.3-0.7,0.4
	c-1.8,1-2.7,2.2-2.7,2.3l0.2,0.1c1-1,2.1-1.5,3.2-2c0.8-0.4,1.6-0.7,2.3-1.3c1.1-0.9,1.5-1.2,2.6-3.6c0-0.1,0.1-0.2,0.1-0.2
	c0,0,0,0.1,0.1,0.2c0.3,2.4-0.9,4-1.9,4.9c-1,0.8-2.3,1.2-3.6,1.6c-1.6,0.5-3.1,0.9-3.9,2.1c-0.1-0.4-0.2-1.1-0.1-1.7
	c0.2-2.3,1.3-4.3,3.2-5.6c1.3-0.9,2.8-1.4,4.1-1.7c0.2-0.1,0.4-0.1,0.6-0.2c1.2-0.4,1.6-1.5,1.7-1.7c0.1-0.2,0.1-0.4,0.1-0.6l0-0.2
	l-0.2,0.1c-0.9,0.3-4.2,1.2-7.5,0.1c-1.9-0.6-3.3-1.6-4.5-2.4c-0.3-0.2-0.6-0.4-0.9-0.6c-2.2-1.5-4.2-1.9-4.2-1.9l0,0.2
	c1.8,0.6,3,1.6,4.2,2.6c0.9,0.8,1.8,1.5,2.9,2c1.7,0.8,2.3,1.1,5.8,1c0.3,0,0.4,0,0.4,0c0,0,0,0.1-0.3,0.3c-2.7,1.7-5.2,1.3-6.9,0.5
	c-1.6-0.7-2.8-2-4-3.3c-1.5-1.6-2.9-3.2-4.8-3.3c0.4-0.4,1.3-0.9,2.1-1.2c2.8-1.1,5.9-0.9,8.6,0.5c1.9,1,3.2,2.5,4.4,3.9
	c0.2,0.2,0.4,0.4,0.6,0.6c1.1,1.2,2.5,1.2,3,1.1c0.4-0.1,0.7-0.2,1-0.3l0.2-0.1l-0.2-0.1c-1.7-1.8-3.9-5.2-4.4-9
	c-0.3-2.6,0.1-4.7,0.5-6.5c0.1-0.5,0.2-0.9,0.3-1.3c0.6-3.4-0.1-5.9-0.1-5.9l-0.2,0c0.3,2.4-0.3,4.4-0.8,6.3
	c-0.4,1.5-0.8,2.9-0.8,4.4c0,2.3-0.1,3.2,1.9,7.2c0.2,0.3,0.2,0.5,0.1,0.5c0,0-0.1,0-0.5-0.2c-3.4-2.2-4.2-5.5-4.3-7.8
	c-0.1-2.2,0.9-4.3,1.8-6.4c1.1-2.6,2.2-5.1,1.3-7.4c0.7,0.3,1.8,1.1,2.5,1.8C65.4,61.9,66.8,65.6,66.5,69.5z M64.4,87.7
	c-0.8,1.6-1.2,1.9-2.1,2.7c-0.7,0.5-1.5,0.9-2.3,1.3c-0.6,0.3-1.3,0.6-1.9,1c0.4-0.3,0.9-0.7,1.5-1c0.2-0.1,0.5-0.2,0.7-0.4
	c1-0.5,2.1-1.1,3.2-2.2C63.8,88.5,64.1,88.1,64.4,87.7z M60.8,84.6c-3.1,0.1-3.8-0.2-5.3-1c-1-0.5-1.9-1.2-2.8-2
	c-0.8-0.7-1.7-1.4-2.7-2c0.7,0.3,1.6,0.7,2.5,1.3c0.3,0.2,0.6,0.4,0.8,0.6c1.2,0.9,2.5,1.8,4.5,2.5C58.8,84.4,59.8,84.6,60.8,84.6z"
	/>
<path class="st0" d="M97.7,57.1L97.5,57l0.1,0.2c1,2.3-0.1,4.8-1.2,7.5c-0.9,2.1-1.9,4.3-1.8,6.5c0.1,2.4,0.9,5.7,4.4,8
	c0.4,0.2,0.6,0.3,0.7,0.2c0.1-0.1,0.1-0.4-0.1-0.7c-1.9-4-1.9-4.8-1.9-7.1c0-1.5,0.4-2.9,0.8-4.3c0.4-1.5,0.8-2.9,0.9-4.6
	c0.1,1,0.1,2.5-0.2,4.1c-0.1,0.4-0.2,0.8-0.3,1.3c-0.4,1.8-0.8,3.9-0.5,6.6c0.4,3.8,2.6,7.2,4.4,9.1c-0.3,0.1-0.5,0.2-0.8,0.2
	c-0.5,0.1-1.8,0-2.8-1.1c-0.2-0.2-0.4-0.4-0.6-0.6c-1.2-1.4-2.6-2.9-4.5-3.9c-2.8-1.5-5.9-1.7-8.7-0.5c-0.9,0.4-1.9,1-2.3,1.4
	l-0.1,0.2l0.2,0c2,0,3.4,1.6,4.9,3.3c1.2,1.3,2.4,2.7,4,3.4c1.7,0.7,4.4,1.2,7.1-0.6c0.3-0.2,0.4-0.3,0.4-0.5c0-0.1-0.1-0.1-0.3-0.2
	c1.7,0,3.1-0.4,3.8-0.6c0,0.1-0.1,0.3-0.1,0.4c-0.1,0.2-0.4,1.2-1.6,1.6c-0.2,0.1-0.4,0.1-0.6,0.2C99.5,86.6,98,87,96.6,88
	c-1.9,1.4-3.1,3.4-3.3,5.8c-0.1,0.8,0,1.7,0.2,2l0.1,0.2l0.1-0.2c0.7-1.3,2.2-1.8,3.8-2.2c1.3-0.4,2.7-0.8,3.7-1.6
	c1.1-0.9,2.3-2.6,2-5c0-0.2-0.1-0.4-0.2-0.4c0,0-0.1,0-0.1,0c0.5-1,0.8-2,0.8-2.7c0,0,0,0,0,0c0,0,0-0.4,0-0.4c0-0.1,0-0.1-0.1-0.2
	l0,0c0,0-0.8-0.5-1.5-1.5c-0.3-0.5-1-2.1-0.3-3.9c0.1-0.3,0.3-0.7,0.5-1c0.9-2.1,2-4.5,2.2-7.3c0.3-4-1.2-7.7-4-10.5
	C99.7,58.2,98.4,57.3,97.7,57.1z M104.4,69.5c-0.2,2.7-1.2,5.1-2.2,7.2c-0.2,0.4-0.3,0.7-0.5,1c-0.8,1.8-0.1,3.6,0.3,4.1
	c0.6,1,1.4,1.4,1.5,1.5l0,0c0,0.1,0,0.3,0,0.3l0,0c-0.1,1.3-0.9,3.5-2.4,5.1c-1.1,1.1-2.2,1.7-3.1,2.2c-0.2,0.1-0.5,0.3-0.7,0.4
	c-1.8,1-2.7,2.2-2.7,2.3l0.2,0.1c1-1,2.1-1.5,3.2-2c0.8-0.4,1.6-0.7,2.3-1.3c1.1-0.9,1.5-1.2,2.6-3.6c0.1-0.1,0.1-0.2,0.1-0.2
	c0,0,0,0.1,0.1,0.2c0.3,2.4-0.9,4-1.9,4.9c-1,0.8-2.3,1.2-3.6,1.6c-1.6,0.5-3.1,0.9-3.9,2.1c-0.1-0.4-0.2-1.1-0.1-1.7
	c0.2-2.3,1.3-4.3,3.2-5.6c1.3-0.9,2.8-1.4,4.1-1.7c0.2-0.1,0.4-0.1,0.6-0.2c1.2-0.4,1.6-1.5,1.7-1.7c0.1-0.2,0.1-0.4,0.1-0.6l0-0.2
	l-0.2,0.1c-0.9,0.3-4.2,1.2-7.5,0.1c-1.9-0.6-3.3-1.6-4.5-2.5c-0.3-0.2-0.6-0.4-0.9-0.6c-2.2-1.5-4.2-1.9-4.2-1.9l0,0.2
	c1.8,0.6,3,1.6,4.2,2.6c0.9,0.8,1.8,1.5,2.9,2c1.7,0.8,2.3,1.1,5.8,1c0.3,0,0.4,0,0.4,0c0,0,0,0.1-0.3,0.3c-2.7,1.7-5.2,1.3-6.9,0.5
	c-1.6-0.7-2.8-2-4-3.3c-1.5-1.6-2.9-3.2-4.8-3.3c0.4-0.4,1.3-0.9,2.1-1.2c2.8-1.1,5.9-0.9,8.6,0.5c1.9,1,3.2,2.5,4.4,3.9
	c0.2,0.2,0.4,0.4,0.6,0.7c1.1,1.2,2.6,1.2,3,1.1c0.4-0.1,0.7-0.2,1-0.3l0.2-0.1l-0.2-0.1c-1.7-1.8-3.9-5.2-4.4-9
	c-0.3-2.6,0.1-4.7,0.5-6.5c0.1-0.5,0.2-0.9,0.3-1.3c0.6-3.4-0.1-5.9-0.1-5.9l-0.2,0c0.3,2.4-0.3,4.4-0.8,6.3
	c-0.4,1.5-0.8,2.9-0.8,4.4c0,2.3-0.1,3.2,1.9,7.2c0.2,0.3,0.2,0.5,0.1,0.5c0,0-0.1,0-0.5-0.2c-3.4-2.2-4.2-5.5-4.3-7.8
	c-0.1-2.2,0.9-4.3,1.8-6.4c1.1-2.6,2.2-5.1,1.3-7.4c0.7,0.3,1.8,1.1,2.5,1.8C103.2,61.9,104.6,65.6,104.4,69.5z M102.2,87.7
	c-0.8,1.6-1.2,1.9-2.1,2.7c-0.7,0.5-1.5,0.9-2.3,1.3c-0.6,0.3-1.3,0.6-1.9,1c0.4-0.3,0.9-0.7,1.5-1c0.2-0.1,0.5-0.2,0.7-0.4
	c1-0.5,2.1-1.1,3.2-2.2C101.6,88.5,101.9,88.1,102.2,87.7z M98.6,84.6c-3.1,0.1-3.8-0.2-5.3-1c-1-0.5-1.9-1.2-2.8-2
	c-0.8-0.7-1.7-1.4-2.7-2c0.7,0.3,1.6,0.7,2.5,1.3c0.3,0.2,0.6,0.4,0.8,0.6c1.2,0.9,2.5,1.8,4.5,2.5C96.7,84.4,97.7,84.6,98.6,84.6z"
	/>
<path class="st0" d="M135.6,57.1l-0.2-0.1l0.1,0.2c1,2.3-0.1,4.8-1.2,7.5c-0.9,2.1-1.9,4.3-1.8,6.5c0.1,2.4,0.9,5.7,4.4,8
	c0.4,0.2,0.6,0.3,0.7,0.2c0.1-0.1,0.1-0.4-0.1-0.7c-1.9-4-1.9-4.8-1.9-7.1c0-1.5,0.4-2.9,0.8-4.3c0.4-1.5,0.8-2.9,0.9-4.6
	c0.1,1,0.1,2.5-0.2,4.1c-0.1,0.4-0.2,0.8-0.3,1.3c-0.4,1.8-0.8,3.9-0.5,6.6c0.4,3.8,2.6,7.2,4.4,9.1c-0.3,0.1-0.5,0.2-0.8,0.2
	c-0.5,0.1-1.8,0-2.8-1.1c-0.2-0.2-0.4-0.4-0.6-0.6c-1.2-1.4-2.6-2.9-4.5-3.9c-2.8-1.5-5.9-1.7-8.7-0.5c-0.9,0.4-1.9,1-2.3,1.4
	l-0.1,0.2l0.2,0c2,0,3.4,1.6,4.9,3.3c1.2,1.3,2.4,2.7,4,3.4c1.7,0.7,4.4,1.2,7.1-0.6c0.3-0.2,0.4-0.3,0.4-0.5c0-0.1-0.1-0.1-0.3-0.2
	c1.7,0,3.1-0.4,3.8-0.6c0,0.2-0.1,0.3-0.1,0.4c-0.1,0.2-0.4,1.2-1.6,1.6c-0.2,0.1-0.4,0.1-0.6,0.2c-1.3,0.4-2.8,0.8-4.2,1.7
	c-1.9,1.4-3.1,3.4-3.3,5.8c-0.1,0.8,0,1.7,0.2,2l0.1,0.2l0.1-0.2c0.7-1.3,2.2-1.8,3.8-2.2c1.3-0.4,2.7-0.8,3.7-1.6
	c1.1-0.9,2.3-2.6,2-5c0-0.2-0.1-0.4-0.2-0.4c0,0-0.1,0-0.1,0c0.5-1,0.7-2,0.8-2.7c0,0,0,0,0,0s0-0.2,0-0.3l0-0.1c0-0.1,0-0.1,0-0.1
	l-0.1,0c0,0-0.8-0.5-1.5-1.5c-0.3-0.5-1-2.1-0.3-3.9c0.1-0.3,0.3-0.7,0.5-1c0.9-2.1,2-4.5,2.2-7.3c0.2-4-1.2-7.7-4-10.5
	C137.5,58.2,136.3,57.3,135.6,57.1z M142.2,69.5c-0.2,2.7-1.2,5.1-2.2,7.2c-0.2,0.4-0.3,0.7-0.5,1c-0.8,1.8-0.1,3.6,0.3,4.1
	c0.6,0.9,1.3,1.4,1.5,1.5v0l0,0l0,0.1c0,0.1,0,0.2,0,0.2l0,0c-0.1,1.3-0.9,3.5-2.4,5.1c-1.1,1.1-2.2,1.7-3.1,2.2
	c-0.2,0.1-0.5,0.3-0.7,0.4c-1.8,1-2.7,2.2-2.7,2.3l0.2,0.1c1-1,2.1-1.5,3.2-2c0.8-0.4,1.6-0.7,2.3-1.3c1.1-0.9,1.5-1.2,2.6-3.6
	c0-0.1,0.1-0.2,0.1-0.2c0,0,0,0.1,0.1,0.2c0.3,2.4-0.9,4-1.9,4.9c-1,0.8-2.3,1.2-3.6,1.6c-1.6,0.5-3.1,0.9-3.9,2.1
	c-0.1-0.4-0.2-1.1-0.1-1.7c0.2-2.3,1.3-4.3,3.2-5.6c1.3-0.9,2.8-1.4,4.1-1.7c0.2-0.1,0.4-0.1,0.6-0.2c1.2-0.4,1.6-1.5,1.7-1.7
	c0.1-0.2,0.1-0.4,0.1-0.6l0-0.2l-0.2,0.1c-0.9,0.3-4.2,1.2-7.5,0.1c-1.9-0.6-3.3-1.6-4.5-2.5c-0.3-0.2-0.6-0.4-0.9-0.6
	c-2.2-1.5-4.2-1.9-4.2-1.9l0,0.2c1.8,0.6,3,1.6,4.2,2.6c0.9,0.8,1.8,1.5,2.9,2c1.7,0.8,2.3,1.1,5.8,1c0.3,0,0.4,0,0.4,0
	c0,0,0,0.1-0.3,0.3c-2.7,1.7-5.2,1.3-6.9,0.5c-1.6-0.7-2.8-2-4-3.3c-1.5-1.6-2.9-3.2-4.8-3.3c0.4-0.4,1.3-0.9,2.1-1.2
	c2.8-1.1,5.9-0.9,8.6,0.5c1.9,1,3.2,2.5,4.4,3.9c0.2,0.2,0.4,0.4,0.6,0.7c1.1,1.2,2.5,1.2,3,1.1c0.4-0.1,0.7-0.2,1-0.3l0.2-0.1
	l-0.2-0.1c-1.7-1.8-3.9-5.2-4.4-9c-0.3-2.6,0.1-4.7,0.5-6.5c0.1-0.5,0.2-0.9,0.3-1.3c0.6-3.4-0.1-5.9-0.1-5.9l-0.2,0
	c0.3,2.4-0.3,4.4-0.8,6.3c-0.4,1.5-0.8,2.9-0.8,4.4c0,2.3-0.1,3.2,1.9,7.2c0.2,0.3,0.2,0.5,0.1,0.5c0,0-0.1,0-0.5-0.2
	c-3.4-2.2-4.2-5.5-4.3-7.8c-0.1-2.2,0.9-4.3,1.8-6.4c1.1-2.6,2.2-5.1,1.3-7.4c0.7,0.3,1.8,1.1,2.5,1.8
	C141,61.9,142.4,65.6,142.2,69.5z M140.1,87.7c-0.8,1.6-1.2,1.9-2.1,2.7c-0.7,0.5-1.5,0.9-2.3,1.3c-0.6,0.3-1.3,0.6-1.9,1
	c0.4-0.3,0.9-0.7,1.5-1c0.2-0.1,0.5-0.2,0.7-0.4c1-0.5,2.1-1.1,3.2-2.2C139.5,88.5,139.8,88.1,140.1,87.7z M136.5,84.6
	c-3.1,0.1-3.8-0.2-5.3-1c-1-0.5-1.9-1.2-2.8-2c-0.8-0.7-1.7-1.4-2.7-2c0.7,0.3,1.6,0.7,2.5,1.3c0.3,0.2,0.6,0.4,0.8,0.6
	c1.2,0.9,2.5,1.8,4.5,2.5C134.5,84.4,135.5,84.6,136.5,84.6z"/>
<path class="st0" d="M21.6,112.6l-0.2-0.1l0.1,0.2c1,2.3-0.1,4.8-1.2,7.5c-0.9,2.1-1.9,4.3-1.8,6.5c0.1,2.4,0.9,5.7,4.4,8
	c0.4,0.2,0.6,0.3,0.7,0.2c0.1-0.1,0.1-0.4-0.1-0.7c-1.9-4-1.9-4.8-1.9-7.1c0-1.5,0.4-2.9,0.8-4.3c0.4-1.5,0.8-2.9,0.9-4.6
	c0.1,1,0.1,2.5-0.2,4.1c-0.1,0.4-0.2,0.8-0.3,1.3c-0.4,1.8-0.8,3.9-0.5,6.6c0.4,3.8,2.6,7.2,4.4,9.1c-0.3,0.1-0.5,0.2-0.8,0.2
	c-0.5,0.1-1.8,0-2.8-1.1c-0.2-0.2-0.4-0.4-0.6-0.6c-1.2-1.4-2.6-2.9-4.5-3.9c-2.8-1.5-5.9-1.7-8.7-0.5c-0.9,0.4-1.9,1-2.3,1.4
	l-0.1,0.2l0.2,0c2,0,3.4,1.6,4.9,3.3c1.2,1.3,2.4,2.7,4,3.4c1.7,0.7,4.4,1.2,7.1-0.6c0.3-0.2,0.4-0.3,0.4-0.5c0-0.1-0.1-0.1-0.3-0.2
	c1.7,0,3.1-0.4,3.8-0.6c0,0.1-0.1,0.3-0.1,0.4c-0.1,0.2-0.4,1.2-1.6,1.6c-0.2,0.1-0.4,0.1-0.6,0.2c-1.3,0.4-2.8,0.8-4.2,1.7
	c-1.9,1.4-3.1,3.4-3.3,5.8c-0.1,0.8,0,1.7,0.2,2l0.1,0.2l0.1-0.2c0.7-1.3,2.2-1.8,3.8-2.2c1.3-0.4,2.7-0.8,3.7-1.6
	c1.1-0.9,2.3-2.6,2-5c0-0.2-0.1-0.4-0.2-0.4c0,0-0.1,0-0.1,0c0.5-1,0.8-2,0.8-2.7c0,0,0,0,0,0c0,0,0-0.4,0-0.4c0-0.1,0-0.1-0.1-0.2
	l0,0c0,0-0.8-0.5-1.5-1.5c-0.3-0.5-1-2.2-0.3-3.9c0.1-0.3,0.3-0.7,0.5-1c0.9-2.1,2-4.5,2.2-7.3c0.3-4-1.2-7.7-4-10.5
	C23.6,113.6,22.3,112.8,21.6,112.6z M28.2,124.9c-0.2,2.7-1.2,5.1-2.2,7.2c-0.2,0.4-0.3,0.7-0.5,1c-0.8,1.8-0.1,3.6,0.3,4.1
	c0.6,1,1.4,1.4,1.5,1.5l0,0c0,0.1,0,0.3,0,0.3l0,0c-0.1,1.3-0.9,3.5-2.4,5.1c-1.1,1.1-2.2,1.7-3.1,2.2c-0.2,0.1-0.5,0.3-0.7,0.4
	c-1.8,1-2.7,2.2-2.7,2.3l0.2,0.1c1-1,2.1-1.5,3.2-2c0.8-0.4,1.6-0.7,2.3-1.3c1.1-0.9,1.5-1.2,2.6-3.6c0.1-0.1,0.1-0.2,0.1-0.2
	c0,0,0,0.1,0.1,0.2c0.3,2.4-0.9,4-1.9,4.9c-1,0.8-2.3,1.2-3.6,1.6c-1.6,0.5-3.1,0.9-3.9,2.1c-0.1-0.4-0.2-1.1-0.1-1.7
	c0.2-2.3,1.3-4.3,3.2-5.6c1.3-0.9,2.8-1.4,4.1-1.7c0.2-0.1,0.4-0.1,0.6-0.2c1.2-0.4,1.6-1.5,1.7-1.7c0.1-0.2,0.1-0.4,0.1-0.6l0-0.2
	l-0.2,0.1c-0.9,0.3-4.2,1.2-7.5,0.1c-1.9-0.6-3.3-1.6-4.5-2.5c-0.3-0.2-0.6-0.4-0.9-0.6c-2.2-1.5-4.2-1.9-4.2-1.9l0,0.2
	c1.8,0.6,3,1.6,4.2,2.6c0.9,0.8,1.8,1.5,2.9,2c1.7,0.8,2.3,1.1,5.8,1c0.3,0,0.4,0,0.4,0c0,0,0,0.1-0.3,0.3c-2.7,1.7-5.2,1.3-6.9,0.5
	c-1.6-0.7-2.8-2-4-3.3c-1.5-1.6-2.9-3.2-4.8-3.3c0.4-0.4,1.3-0.9,2.1-1.2c2.8-1.1,5.9-0.9,8.6,0.5c1.9,1,3.2,2.5,4.4,3.9
	c0.2,0.2,0.4,0.4,0.6,0.7c1.1,1.2,2.6,1.2,3,1.1c0.4-0.1,0.7-0.2,1-0.3l0.2-0.1l-0.2-0.1c-1.7-1.8-3.9-5.2-4.4-9
	c-0.3-2.6,0.1-4.7,0.5-6.5c0.1-0.5,0.2-0.9,0.3-1.3c0.6-3.4-0.1-5.9-0.1-5.9l-0.2,0c0.3,2.4-0.3,4.4-0.8,6.3
	c-0.4,1.5-0.8,2.9-0.8,4.4c0,2.3-0.1,3.2,1.9,7.2c0.2,0.3,0.2,0.5,0.1,0.5c0,0-0.1,0-0.5-0.2c-3.4-2.2-4.2-5.5-4.3-7.8
	c-0.1-2.2,0.9-4.3,1.8-6.4c1.1-2.6,2.2-5.1,1.3-7.4c0.7,0.3,1.8,1.1,2.5,1.8C27.1,117.4,28.5,121,28.2,124.9z M26.1,143.1
	c-0.8,1.6-1.2,1.9-2.1,2.7c-0.7,0.5-1.5,0.9-2.3,1.3c-0.6,0.3-1.3,0.6-1.9,1c0.4-0.3,0.9-0.7,1.5-1c0.2-0.1,0.5-0.2,0.7-0.4
	c1-0.5,2.1-1.1,3.2-2.2C25.5,144,25.8,143.6,26.1,143.1z M22.5,140.1c-3.1,0.1-3.8-0.2-5.3-1c-1-0.5-1.9-1.2-2.8-2
	c-0.8-0.7-1.7-1.4-2.7-2c0.7,0.3,1.6,0.7,2.5,1.3c0.3,0.2,0.6,0.4,0.8,0.6c1.2,0.9,2.5,1.8,4.5,2.5C20.6,139.9,21.6,140,22.5,140.1z
	"/>
<path class="st0" d="M59.9,112.6l-0.2-0.1l0.1,0.2c1,2.3-0.1,4.8-1.2,7.5c-0.9,2.1-1.9,4.3-1.8,6.5c0.1,2.4,0.9,5.7,4.4,8
	c0.4,0.2,0.6,0.3,0.7,0.2c0.1-0.1,0.1-0.4-0.1-0.7c-1.9-4-1.9-4.8-1.9-7.1c0-1.5,0.4-2.9,0.8-4.3c0.4-1.5,0.8-2.9,0.9-4.6
	c0.1,1,0.1,2.5-0.2,4.1c-0.1,0.4-0.2,0.8-0.3,1.3c-0.4,1.8-0.8,3.9-0.5,6.6c0.4,3.8,2.6,7.2,4.4,9.1c-0.3,0.1-0.5,0.2-0.8,0.2
	c-0.4,0.1-1.8,0-2.8-1.1c-0.2-0.2-0.4-0.4-0.6-0.6c-1.2-1.4-2.6-2.9-4.5-3.9c-2.8-1.5-5.9-1.7-8.7-0.5c-0.9,0.4-1.9,1-2.3,1.4
	l-0.1,0.2l0.2,0c2,0,3.4,1.6,4.9,3.3c1.2,1.3,2.4,2.7,4,3.4c1.7,0.7,4.4,1.2,7.1-0.6c0.3-0.2,0.4-0.3,0.4-0.5c0-0.1-0.1-0.1-0.3-0.2
	c1.7,0,3.1-0.4,3.8-0.6c0,0.1-0.1,0.3-0.1,0.4c-0.1,0.2-0.4,1.2-1.6,1.6c-0.2,0.1-0.4,0.1-0.6,0.2c-1.3,0.4-2.8,0.8-4.2,1.7
	c-1.9,1.4-3.1,3.4-3.3,5.8c-0.1,0.8,0,1.7,0.2,2l0.1,0.2l0.1-0.2c0.7-1.3,2.2-1.8,3.8-2.2c1.3-0.4,2.7-0.8,3.7-1.6
	c1.1-0.9,2.3-2.6,2-5c0-0.2-0.1-0.4-0.2-0.4c0,0-0.1,0-0.1,0c0.5-1,0.8-2,0.8-2.7c0,0,0,0,0,0c0,0,0-0.4,0-0.4c0-0.1,0-0.1-0.1-0.2
	l0,0c0,0-0.8-0.5-1.5-1.5c-0.3-0.5-1-2.2-0.3-3.9c0.1-0.3,0.3-0.7,0.5-1c0.9-2.1,2-4.5,2.2-7.3c0.3-4-1.2-7.7-4-10.5
	C61.9,113.6,60.6,112.8,59.9,112.6z M66.5,124.9c-0.2,2.7-1.2,5.1-2.2,7.2c-0.2,0.4-0.3,0.7-0.5,1c-0.8,1.8-0.1,3.6,0.3,4.1
	c0.6,1,1.4,1.4,1.5,1.5l0,0c0,0.1,0,0.3,0,0.3l0,0c-0.1,1.3-0.9,3.5-2.4,5.1c-1.1,1.1-2.2,1.7-3.1,2.2c-0.2,0.1-0.5,0.3-0.7,0.4
	c-1.8,1-2.7,2.2-2.7,2.3l0.2,0.1c1-1,2.1-1.5,3.2-2c0.8-0.4,1.6-0.7,2.3-1.3c1.1-0.9,1.5-1.2,2.6-3.6c0-0.1,0.1-0.2,0.1-0.2
	c0,0,0,0.1,0.1,0.2c0.3,2.4-0.9,4-1.9,4.9c-1,0.8-2.3,1.2-3.6,1.6c-1.6,0.5-3.1,0.9-3.9,2.1c-0.1-0.4-0.2-1.1-0.1-1.7
	c0.2-2.3,1.3-4.3,3.2-5.6c1.3-0.9,2.8-1.4,4.1-1.7c0.2-0.1,0.4-0.1,0.6-0.2c1.2-0.4,1.6-1.5,1.7-1.7c0.1-0.2,0.1-0.4,0.1-0.6l0-0.2
	l-0.2,0.1c-0.9,0.3-4.2,1.2-7.5,0.1c-1.9-0.6-3.3-1.6-4.5-2.5c-0.3-0.2-0.6-0.4-0.9-0.6c-2.2-1.5-4.2-1.9-4.2-1.9l0,0.2
	c1.8,0.6,3,1.6,4.2,2.6c0.9,0.8,1.8,1.5,2.9,2c1.7,0.8,2.3,1.1,5.8,1c0.3,0,0.4,0,0.4,0c0,0,0,0.1-0.3,0.3c-2.7,1.7-5.2,1.2-6.9,0.5
	c-1.6-0.7-2.8-2-4-3.3c-1.5-1.6-2.9-3.2-4.8-3.3c0.4-0.4,1.3-0.9,2.1-1.2c2.8-1.1,5.9-0.9,8.6,0.5c1.9,1,3.2,2.5,4.4,3.9
	c0.2,0.2,0.4,0.4,0.6,0.6c1.1,1.2,2.6,1.2,3,1.1c0.4-0.1,0.7-0.2,1-0.3l0.2-0.1l-0.2-0.1c-1.7-1.8-3.9-5.2-4.4-9
	c-0.3-2.6,0.1-4.7,0.5-6.5c0.1-0.5,0.2-0.9,0.3-1.3c0.6-3.4-0.1-5.9-0.1-5.9l-0.2,0c0.3,2.4-0.3,4.4-0.8,6.3
	c-0.4,1.5-0.8,2.9-0.8,4.4c0,2.3-0.1,3.2,1.9,7.2c0.2,0.3,0.2,0.5,0.1,0.5c0,0-0.1,0-0.5-0.2c-3.4-2.2-4.2-5.5-4.3-7.8
	c-0.1-2.2,0.9-4.3,1.8-6.4c1.1-2.6,2.2-5.1,1.3-7.4c0.7,0.3,1.8,1.1,2.5,1.8C65.4,117.4,66.8,121,66.5,124.9z M64.4,143.1
	c-0.8,1.6-1.2,1.9-2.1,2.7c-0.7,0.5-1.5,0.9-2.3,1.3c-0.6,0.3-1.3,0.6-1.9,1c0.4-0.3,0.9-0.7,1.5-1c0.2-0.1,0.5-0.2,0.7-0.4
	c1-0.5,2.1-1.1,3.2-2.2C63.8,144,64.1,143.6,64.4,143.1z M60.8,140.1c-3.1,0.1-3.8-0.2-5.3-1c-1-0.5-1.9-1.2-2.8-2
	c-0.8-0.7-1.7-1.4-2.7-2c0.7,0.3,1.6,0.7,2.5,1.3c0.3,0.2,0.6,0.4,0.8,0.6c1.2,0.9,2.5,1.8,4.5,2.5C58.8,139.9,59.8,140,60.8,140.1z
	"/>
<path class="st0" d="M97.7,112.6l-0.2-0.1l0.1,0.2c1,2.3-0.1,4.8-1.2,7.5c-0.9,2.1-1.9,4.3-1.8,6.5c0.1,2.4,0.9,5.7,4.4,8
	c0.4,0.2,0.6,0.3,0.7,0.2c0.1-0.1,0.1-0.4-0.1-0.7c-1.9-4-1.9-4.8-1.9-7.1c0-1.5,0.4-2.9,0.8-4.3c0.4-1.5,0.8-2.9,0.9-4.6
	c0.1,1,0.1,2.5-0.2,4.1c-0.1,0.4-0.2,0.8-0.3,1.3c-0.4,1.8-0.8,3.9-0.5,6.6c0.4,3.8,2.6,7.2,4.4,9.1c-0.3,0.1-0.5,0.2-0.8,0.2
	c-0.5,0.1-1.8,0-2.8-1.1c-0.2-0.2-0.4-0.4-0.6-0.6c-1.2-1.4-2.6-2.9-4.5-3.9c-2.8-1.5-5.9-1.7-8.7-0.5c-0.9,0.4-1.9,1-2.3,1.4
	l-0.1,0.2l0.2,0c2,0,3.4,1.6,4.9,3.3c1.2,1.3,2.4,2.7,4,3.4c1.7,0.7,4.4,1.2,7.1-0.6c0.3-0.2,0.4-0.3,0.4-0.5c0-0.1-0.1-0.1-0.3-0.2
	c1.7,0,3.1-0.4,3.8-0.6c0,0.1-0.1,0.3-0.1,0.4c-0.1,0.2-0.4,1.2-1.6,1.6c-0.2,0.1-0.4,0.1-0.6,0.2c-1.3,0.4-2.8,0.8-4.2,1.7
	c-1.9,1.4-3.1,3.4-3.3,5.8c-0.1,0.8,0,1.7,0.2,2l0.1,0.2l0.1-0.2c0.7-1.3,2.2-1.8,3.8-2.2c1.3-0.4,2.7-0.8,3.7-1.6
	c1.1-0.9,2.3-2.6,2-5c0-0.2-0.1-0.4-0.2-0.4c0,0-0.1,0-0.1,0c0.5-1,0.8-2,0.8-2.7c0,0,0,0,0,0c0,0,0-0.4,0-0.4c0-0.1,0-0.1-0.1-0.2
	l0,0c0,0-0.8-0.5-1.5-1.5c-0.3-0.5-1-2.1-0.3-3.9c0.1-0.3,0.3-0.7,0.5-1c0.9-2.1,2-4.5,2.2-7.3c0.3-4-1.2-7.7-4-10.5
	C99.7,113.6,98.4,112.8,97.7,112.6z M104.4,124.9c-0.2,2.7-1.2,5.1-2.2,7.2c-0.2,0.4-0.3,0.7-0.5,1c-0.8,1.8-0.1,3.6,0.3,4.1
	c0.6,1,1.4,1.4,1.5,1.5l0,0c0,0.1,0,0.3,0,0.3l0,0c-0.1,1.3-0.9,3.5-2.4,5.1c-1.1,1.1-2.2,1.7-3.1,2.2c-0.2,0.1-0.5,0.3-0.7,0.4
	c-1.8,1-2.7,2.2-2.7,2.3l0.2,0.1c1-1,2.1-1.5,3.2-2c0.8-0.4,1.6-0.7,2.3-1.3c1.1-0.9,1.5-1.2,2.6-3.6c0.1-0.1,0.1-0.2,0.1-0.2
	c0,0,0,0.1,0.1,0.2c0.3,2.4-0.9,4-1.9,4.9c-1,0.8-2.3,1.2-3.6,1.6c-1.6,0.5-3.1,0.9-3.9,2.1c-0.1-0.4-0.2-1.1-0.1-1.7
	c0.2-2.3,1.3-4.3,3.2-5.6c1.3-0.9,2.8-1.4,4.1-1.7c0.2-0.1,0.4-0.1,0.6-0.2c1.2-0.4,1.6-1.5,1.7-1.7c0.1-0.2,0.1-0.4,0.1-0.6l0-0.2
	l-0.2,0.1c-0.9,0.3-4.2,1.2-7.5,0.1c-1.9-0.6-3.3-1.6-4.5-2.5c-0.3-0.2-0.6-0.4-0.9-0.6c-2.2-1.5-4.2-1.9-4.2-1.9l0,0.2
	c1.8,0.6,3,1.6,4.2,2.6c0.9,0.8,1.8,1.5,2.9,2c1.7,0.8,2.3,1.1,5.8,1c0.3,0,0.4,0,0.4,0c0,0,0,0.1-0.3,0.3c-2.7,1.7-5.2,1.3-6.9,0.5
	c-1.6-0.7-2.8-2-4-3.3c-1.5-1.6-2.9-3.2-4.8-3.3c0.4-0.4,1.3-0.9,2.1-1.2c2.8-1.1,5.9-0.9,8.6,0.5c1.9,1,3.2,2.5,4.4,3.9
	c0.2,0.2,0.4,0.4,0.6,0.7c1.1,1.2,2.6,1.2,3,1.1c0.4-0.1,0.7-0.2,1-0.3l0.2-0.1l-0.2-0.1c-1.7-1.8-3.9-5.2-4.4-9
	c-0.3-2.6,0.1-4.7,0.5-6.5c0.1-0.5,0.2-0.9,0.3-1.3c0.6-3.4-0.1-5.9-0.1-5.9l-0.2,0c0.3,2.4-0.3,4.4-0.8,6.3
	c-0.4,1.5-0.8,2.9-0.8,4.4c0,2.3-0.1,3.2,1.9,7.2c0.2,0.3,0.2,0.5,0.1,0.5c0,0-0.1,0-0.5-0.2c-3.4-2.2-4.2-5.5-4.3-7.8
	c-0.1-2.2,0.9-4.3,1.8-6.4c1.1-2.6,2.2-5.1,1.3-7.4c0.7,0.3,1.8,1.1,2.5,1.8C103.2,117.4,104.6,121,104.4,124.9z M102.2,143.1
	c-0.8,1.6-1.2,1.9-2.1,2.7c-0.7,0.5-1.5,0.9-2.3,1.3c-0.6,0.3-1.3,0.6-1.9,1c0.4-0.3,0.9-0.7,1.5-1c0.2-0.1,0.5-0.2,0.7-0.4
	c1-0.5,2.1-1.1,3.2-2.2C101.6,144,101.9,143.6,102.2,143.1z M98.6,140.1c-3.1,0.1-3.8-0.2-5.3-1c-1-0.5-1.9-1.2-2.8-2
	c-0.8-0.7-1.7-1.4-2.7-2c0.7,0.3,1.6,0.7,2.5,1.3c0.3,0.2,0.6,0.4,0.8,0.6c1.2,0.9,2.5,1.8,4.5,2.5C96.7,139.9,97.7,140,98.6,140.1z
	"/>
<path class="st0" d="M135.6,112.6l-0.2-0.1l0.1,0.2c1,2.3-0.1,4.8-1.2,7.5c-0.9,2.1-1.9,4.3-1.8,6.5c0.1,2.4,0.9,5.7,4.4,8
	c0.4,0.2,0.6,0.3,0.7,0.2c0.1-0.1,0.1-0.4-0.1-0.7c-1.9-4-1.9-4.8-1.9-7.1c0-1.5,0.4-2.9,0.8-4.3c0.4-1.5,0.8-2.9,0.9-4.6
	c0.1,1,0.1,2.5-0.2,4.1c-0.1,0.4-0.2,0.8-0.3,1.3c-0.4,1.8-0.8,3.9-0.5,6.6c0.4,3.8,2.6,7.2,4.4,9.1c-0.3,0.1-0.5,0.2-0.8,0.2
	c-0.5,0.1-1.8,0-2.8-1.1c-0.2-0.2-0.4-0.4-0.6-0.6c-1.2-1.4-2.6-2.9-4.5-3.9c-2.8-1.5-5.9-1.7-8.7-0.5c-0.9,0.4-1.9,1-2.3,1.4
	l-0.1,0.2l0.2,0c2,0,3.4,1.6,4.9,3.3c1.2,1.3,2.4,2.7,4,3.4c1.7,0.7,4.4,1.2,7.1-0.6c0.3-0.2,0.4-0.3,0.4-0.5c0-0.1-0.1-0.1-0.3-0.2
	c1.7,0,3.1-0.4,3.8-0.6c0,0.2-0.1,0.3-0.1,0.4c-0.1,0.2-0.4,1.2-1.6,1.6c-0.2,0.1-0.4,0.1-0.6,0.2c-1.3,0.4-2.8,0.8-4.2,1.7
	c-1.9,1.4-3.1,3.4-3.3,5.8c-0.1,0.8,0,1.7,0.2,2l0.1,0.2l0.1-0.2c0.7-1.3,2.2-1.8,3.8-2.2c1.3-0.4,2.7-0.8,3.7-1.6
	c1.1-0.9,2.3-2.6,2-5c0-0.2-0.1-0.4-0.2-0.4c0,0-0.1,0-0.1,0c0.5-1,0.7-2,0.8-2.7c0,0,0,0,0,0c0,0,0-0.2,0-0.3l0-0.1
	c0-0.1,0-0.1,0-0.1l-0.1,0c0,0-0.8-0.5-1.5-1.5c-0.3-0.5-1-2.1-0.3-3.9c0.1-0.3,0.3-0.7,0.5-1c0.9-2.1,2-4.5,2.2-7.3
	c0.2-4-1.2-7.7-4-10.5C137.5,113.6,136.3,112.8,135.6,112.6z M142.2,124.9c-0.2,2.7-1.2,5.1-2.2,7.2c-0.2,0.4-0.3,0.7-0.5,1
	c-0.8,1.8-0.1,3.6,0.3,4.1c0.6,0.9,1.3,1.4,1.5,1.5v0l0,0l0,0.1c0,0.1,0,0.2,0,0.2l0,0c-0.1,1.3-0.9,3.5-2.4,5.1
	c-1.1,1.1-2.2,1.7-3.1,2.2c-0.2,0.1-0.5,0.3-0.7,0.4c-1.8,1-2.7,2.2-2.7,2.3l0.2,0.1c1-1,2.1-1.5,3.2-2c0.8-0.4,1.6-0.7,2.3-1.3
	c1.1-0.9,1.5-1.2,2.6-3.6c0-0.1,0.1-0.2,0.1-0.2c0,0,0,0.1,0.1,0.2c0.3,2.4-0.9,4-1.9,4.9c-1,0.8-2.3,1.2-3.6,1.6
	c-1.6,0.5-3.1,0.9-3.9,2.1c-0.1-0.4-0.2-1.1-0.1-1.7c0.2-2.3,1.3-4.3,3.2-5.6c1.3-0.9,2.8-1.4,4.1-1.7c0.2-0.1,0.4-0.1,0.6-0.2
	c1.2-0.4,1.6-1.5,1.7-1.7c0.1-0.2,0.1-0.4,0.1-0.6l0-0.2l-0.2,0.1c-0.9,0.3-4.2,1.2-7.5,0.1c-1.9-0.6-3.3-1.6-4.5-2.5
	c-0.3-0.2-0.6-0.4-0.9-0.6c-2.2-1.5-4.2-1.9-4.2-1.9l0,0.2c1.8,0.6,3,1.6,4.2,2.6c0.9,0.8,1.8,1.5,2.9,2c1.7,0.8,2.3,1.1,5.8,1
	c0.3,0,0.4,0,0.4,0c0,0,0,0.1-0.3,0.3c-2.7,1.7-5.2,1.2-6.9,0.5c-1.6-0.7-2.8-2-4-3.3c-1.5-1.6-2.9-3.2-4.8-3.3
	c0.4-0.4,1.3-0.9,2.1-1.2c2.8-1.1,5.9-0.9,8.6,0.5c1.9,1,3.2,2.5,4.4,3.9c0.2,0.2,0.4,0.4,0.6,0.7c1.1,1.2,2.6,1.2,3,1.1
	c0.4-0.1,0.7-0.2,1-0.3l0.2-0.1l-0.2-0.1c-1.7-1.8-3.9-5.2-4.4-9c-0.3-2.6,0.1-4.7,0.5-6.5c0.1-0.5,0.2-0.9,0.3-1.3
	c0.6-3.4-0.1-5.9-0.1-5.9l-0.2,0c0.3,2.4-0.3,4.4-0.8,6.3c-0.4,1.5-0.8,2.9-0.8,4.4c0,2.3-0.1,3.2,1.9,7.2c0.2,0.3,0.2,0.5,0.1,0.5
	c0,0-0.1,0-0.5-0.2c-3.4-2.2-4.2-5.5-4.3-7.8c-0.1-2.2,0.9-4.3,1.8-6.4c1.1-2.6,2.2-5.1,1.3-7.4c0.7,0.3,1.8,1.1,2.5,1.8
	C141,117.4,142.4,121,142.2,124.9z M140.1,143.1c-0.8,1.6-1.2,1.9-2.1,2.7c-0.7,0.5-1.5,0.9-2.3,1.3c-0.6,0.3-1.3,0.6-1.9,1
	c0.4-0.3,0.9-0.7,1.5-1c0.2-0.1,0.5-0.2,0.7-0.4c1-0.5,2.1-1.1,3.2-2.2C139.5,144,139.8,143.6,140.1,143.1z M136.4,140.1
	c-3.1,0.1-3.8-0.2-5.3-1c-1-0.5-1.9-1.2-2.8-2c-0.8-0.7-1.7-1.4-2.7-2c0.7,0.3,1.6,0.7,2.5,1.3c0.3,0.2,0.6,0.4,0.8,0.6
	c1.2,0.9,2.5,1.8,4.5,2.5C134.5,139.9,135.5,140,136.4,140.1z"/>
</svg>
