<?xml version="1.0" encoding="utf-8"?>
<!-- Generator: Adobe Illustrator 25.0.1, SVG Export Plug-In . SVG Version: 6.00 Build 0)  -->
<svg version="1.1" id="Layer_1" xmlns="http://www.w3.org/2000/svg" xmlns:xlink="http://www.w3.org/1999/xlink" x="0px" y="0px"
	 viewBox="0 0 100 100" style="enable-background:new 0 0 100 100;" xml:space="preserve">
<style type="text/css">
	.st0{fill:#007A3E;}
</style>
<g>
	<g>
		<g>
			<path class="st0" d="M76.89,64.91c-1.9-1.74-2.44-4.11-2.2-6.66c0.24-2.53-0.63-4.46-2.55-6.09c-1.4-1.19-2.62-2.61-3.95-3.9
				c-1.27-1.23-2.74-1.44-4.68-0.71c0.97,0.98,1.9,1.76,2.61,2.71c0.34,0.45,0.55,1.43,0.29,1.8c-0.58,0.84-1.33,0.38-1.92-0.23
				c-0.95-0.98-1.91-1.96-3.2-3.27c0,2.64,0,4.82,0,7c0,3.88-1.57,5.32-5.18,4.99c-0.43,1.68-0.57,3.48-1.36,4.92
				c-0.92,1.66-2.76,1.75-4.12,1.4c-1.28,1.06-2.38,1.89-3.39,2.83c-1.47,1.36-2.9,2.77-4.28,4.21c-1.44,1.5-3.06,2.49-5.2,2.69
				c-0.82,0.07-1.62,0.58-2.37,1c-0.71,0.41-0.93,0.91-0.58,1.89c0.26,0.73-0.01,2-0.54,2.61c-1.64,1.9-3.47,3.64-5.29,5.38
				c-1.15,1.1-2.4,1.09-3.55-0.04c-3.29-3.24-6.57-6.51-9.77-9.84c-0.35-0.36-0.19-1.22-0.26-1.84c0.63,0.09,1.48-0.04,1.85,0.32
				c2.93,2.81,5.77,5.7,8.63,8.58c0.4,0.4,0.72,0.86,0.96,1.15c1.99-1.99,3.82-3.81,5.59-5.58c-4.91-4.89-10-9.95-14.99-14.91
				c-1.68,1.68-3.48,3.48-5.76,5.76c0.41,0.24,1.07,0.55,1.63,1c0.63,0.5,1.16,1.19,0.42,1.95c-0.8,0.82-1.48,0.24-2.09-0.38
				c-0.43-0.44-0.89-0.86-1.3-1.32c-1.13-1.26-1.13-2.43,0.06-3.67c1.49-1.56,3.04-3.07,4.56-4.59c1.7-1.7,2.22-1.79,4.36-0.76
				c1.06-0.83,1.58-1.95,1.62-3.29c0.03-1.08,0.02-2.16,0.01-3.24c0-1.94,0.66-3.61,2.04-4.99c1.67-1.67,3.26-3.44,5.04-4.98
				c1.12-0.97,2.55-1.6,3.57-2.22c0-3.6-0.07-7.23,0.02-10.85c0.06-2.43,1.83-3.93,3.43-5.45c1.23-1.17,2.18-2.45,2.05-4.38
				c-2.2-0.4-2.74-1.9-2.62-3.95c0.12-2,0-4.01,0.03-6.01c0.03-1.82,0.95-2.78,2.75-2.78c6.99-0.02,13.97-0.02,20.96,0
				c1.84,0,2.75,0.92,2.77,2.74c0.03,2.11-0.08,4.22,0.03,6.32c0.1,1.9-0.49,3.21-2.91,3.74c0.55,1.37,0.86,2.72,1.58,3.81
				c1.01,1.52,1.61,3.06,1.6,4.87c-0.02,3.8-0.01,7.6,0,11.4c0,0.53,0.1,1.07,0.15,1.54c0.29,0.07,0.41,0.14,0.48,0.11
				c3.58-1.79,6.5-0.84,9.05,2.05c1.25,1.42,2.73,2.65,3.99,4.07c0.7,0.79,1.24,1.75,1.69,2.71c0.35,0.73,0.2,1.73,1.44,1.8
				c0.2,0.01,0.6,0.88,0.47,1.11c-0.28,0.5-0.83,0.84-1.53,1.48c-0.21,1.42,0.07,3.06,1.63,4.45c1.86-1.48,3.24-0.55,4.59,0.92
				c1.35,1.47,2.83,2.83,4.23,4.27c1.31,1.36,1.34,2.56,0.02,3.89c-4.92,4.96-9.85,9.91-14.8,14.84c-1.38,1.38-2.58,1.33-4.01-0.07
				c-1.5-1.47-2.98-2.97-4.47-4.47c-1.6-1.61-1.69-2.12-0.62-4.56c-1.15-0.54-2.26-1.38-3.48-1.57c-1.99-0.31-3.59-1.11-4.95-2.54
				c-0.96-1-2.05-1.89-2.9-2.97c-0.34-0.43-0.21-1.23-0.29-1.86c0.63,0.08,1.36-0.01,1.85,0.29c0.68,0.41,1.22,1.09,1.77,1.7
				c1.55,1.71,3.22,2.98,5.7,3.27c1.4,0.17,2.69,1.33,4.01,2.03C69.03,72.81,72.89,68.93,76.89,64.91z M36.69,45.7
				c0-1.51-0.1-2.8,0.05-4.05c0.05-0.44,0.71-0.81,1.09-1.22c0.39,0.39,0.9,0.73,1.14,1.2c0.19,0.37,0.06,0.91,0.06,1.37
				c0,6.27,0,12.54,0,18.81c0,0.51-0.14,1.13,0.09,1.51c0.33,0.55,0.98,1.31,1.43,1.27c0.58-0.05,1.2-0.73,1.61-1.27
				c0.23-0.3,0.07-0.9,0.07-1.36c0-5.6,0-11.2,0-16.8c0-0.41-0.13-0.89,0.04-1.22c0.25-0.48,0.71-0.86,1.08-1.28
				c0.41,0.44,0.91,0.82,1.2,1.32c0.18,0.31,0.04,0.8,0.04,1.21c0,6.47,0,12.95,0,19.42c0,0.41-0.15,0.93,0.05,1.21
				c0.41,0.6,1,1.49,1.53,1.5c0.53,0.01,1.2-0.83,1.56-1.45c0.25-0.43,0.06-1.1,0.06-1.67c-0.01-6.37-0.02-12.74-0.01-19.11
				c0-0.98-0.29-2.38,1.21-2.36c1.5,0.01,1.16,1.42,1.17,2.39c0.02,5.86,0.02,11.71,0,17.57c0,1.16,0.42,1.98,1.63,1.96
				c1.11-0.02,1.59-0.8,1.56-1.89c-0.01-0.41,0-0.82,0-1.23c0-5.65,0-11.3,0-16.96c0-0.86,0.04-1.82,1.13-1.85
				c1.21-0.04,1.25,0.96,1.25,1.88c0,3.85,0.01,7.71-0.01,11.56c0,1.15,0.25,2.13,1.61,2.14c1.37,0,1.61-1,1.6-2.14
				c-0.01-7.91,0.01-15.83-0.03-23.74c0-0.84-0.14-1.84-0.62-2.47c-1.37-1.82-2.26-3.76-2.15-6.19c-2.92,0-5.69,0.06-8.45-0.05
				c-0.54-0.02-1.41-0.61-1.5-1.07c-0.21-0.99,0.65-1.24,1.5-1.25c1.49-0.01,2.98,0,4.47,0c2.14,0,4.28,0,6.39,0
				c0-2.76,0-5.29,0-7.81c-7.27,0-14.39,0-21.55,0c0,2.64,0,5.17,0,7.82c1.6,0,3.09-0.1,4.56,0.05c0.48,0.05,0.89,0.74,1.34,1.13
				c-0.45,0.39-0.84,0.95-1.36,1.13c-0.59,0.2-1.29,0.05-1.94,0.05c0.11,0.11,0.23,0.23,0.34,0.34c-0.74,1.58-1.35,3.24-2.26,4.73
				c-0.6,0.98-1.74,1.63-2.4,2.58c-0.62,0.88-1.25,1.96-1.33,2.99c-0.19,2.56-0.11,5.13-0.05,7.7
				C33.94,43.76,34.79,44.96,36.69,45.7z M21.19,64.84c3.96,3.99,7.84,7.91,11.54,11.65c1.31-0.69,2.61-1.89,4-2
				c3.64-0.28,5.2-3.1,7.37-5.05c-0.71-0.97-1.3-1.79-1.91-2.63c-3.78,0.55-5.51-0.95-5.51-4.86c0-3.95,0-7.91-0.01-11.86
				c0-0.37-0.08-0.73-0.17-1.5c-1.2,1.28-2.08,2.37-3.13,3.26c-0.41,0.34-1.4,0.49-1.8,0.23c-0.78-0.51-0.39-1.28,0.21-1.8
				c0.91-0.8,1.87-1.55,2.97-2.46c-2.3-1.04-3.63-0.84-5.03,0.5c-1.48,1.42-2.85,2.97-4.38,4.33c-1.55,1.38-2.19,3-2.05,5.05
				C23.5,60.44,23.17,63.06,21.19,64.84z M70.53,85.55c5.12-5.09,10.22-10.17,15.16-15.08c-1.68-1.68-3.47-3.48-5.01-5.02
				c-5,4.97-10.11,10.05-15.19,15.1C67.15,82.19,68.92,83.95,70.53,85.55z"/>
			<path class="st0" d="M17.62,47.94c-0.6-0.8-1.2-1.27-1.16-1.67c0.04-0.43,0.65-1,1.1-1.11c0.28-0.07,1.01,0.6,1.04,0.98
				C18.63,46.59,18.13,47.07,17.62,47.94z"/>
			<path class="st0" d="M57.15,80.91c-0.86,0.53-1.37,1.09-1.77,1.02c-0.42-0.08-0.93-0.73-1.01-1.19
				c-0.05-0.27,0.69-0.94,1.07-0.94C55.89,79.81,56.34,80.35,57.15,80.91z"/>
			<path class="st0" d="M34.97,24.4c-0.82,0.56-1.31,1.15-1.7,1.1c-0.42-0.06-0.97-0.68-1.07-1.14c-0.06-0.27,0.64-0.98,1.02-1
				C33.67,23.34,34.13,23.87,34.97,24.4z"/>
			<path class="st0" d="M25.89,28.28c0.53,0.83,1.07,1.29,1.05,1.74c-0.01,0.38-0.72,1.08-1.01,1.02c-0.46-0.08-1.09-0.64-1.15-1.06
				C24.73,29.58,25.33,29.09,25.89,28.28z"/>
			<path class="st0" d="M75.2,36.67c0.56,0.83,1.1,1.28,1.09,1.72c-0.01,0.37-0.7,1.07-0.99,1.02c-0.46-0.08-1.09-0.61-1.17-1.03
				C74.06,38,74.64,37.5,75.2,36.67z"/>
			<path class="st0" d="M27.54,82.43c-0.55-0.82-1.16-1.34-1.07-1.71c0.11-0.47,0.77-0.81,1.19-1.21c0.36,0.41,0.98,0.81,1.01,1.24
				C28.7,81.17,28.11,81.63,27.54,82.43z"/>
			<path class="st0" d="M62.12,22.85c0.53,0.82,1.05,1.28,1.03,1.71c-0.02,0.37-0.65,0.72-1.01,1.07c-0.38-0.39-0.97-0.73-1.07-1.18
				C60.99,24.13,61.56,23.65,62.12,22.85z"/>
			<path class="st0" d="M71.42,30.22c-0.75,0.63-1.16,1.25-1.5,1.21c-0.45-0.06-1.03-0.55-1.19-0.99c-0.09-0.24,0.53-1.03,0.89-1.07
				C70.06,29.31,70.56,29.78,71.42,30.22z"/>
			<path class="st0" d="M20.01,60.05c-0.82,0.54-1.3,1.1-1.63,1.02c-0.45-0.11-0.97-0.66-1.08-1.12c-0.06-0.26,0.65-0.97,1.02-0.98
				C18.76,58.97,19.2,59.5,20.01,60.05z"/>
			<path class="st0" d="M41.81,82.9c-0.55-0.69-1.16-1.12-1.11-1.45c0.07-0.46,0.63-0.84,0.98-1.26c0.39,0.38,0.98,0.71,1.1,1.16
				C42.87,81.68,42.3,82.16,41.81,82.9z"/>
			<path class="st0" d="M67.85,27.24c-0.87,0.51-1.35,1.01-1.78,0.97c-0.37-0.03-1.02-0.75-0.96-1.04c0.09-0.45,0.66-1.06,1.08-1.11
				C66.57,26.03,67.04,26.64,67.85,27.24z"/>
			<path class="st0" d="M78.6,42.94c-0.86,0.52-1.33,1.03-1.76,1c-0.37-0.03-1.02-0.73-0.96-1.03c0.08-0.45,0.64-1.07,1.05-1.13
				C77.31,41.74,77.78,42.34,78.6,42.94z"/>
			<path class="st0" d="M78.09,50.71c0.54,0.86,1.1,1.35,1.04,1.75c-0.06,0.42-0.72,0.75-1.11,1.12c-0.34-0.37-0.95-0.73-0.96-1.11
				C77.05,52.03,77.56,51.57,78.09,50.71z"/>
			<path class="st0" d="M59.89,77.67c0.51,0.86,1.07,1.38,0.98,1.76c-0.1,0.42-0.75,0.92-1.21,0.98c-0.29,0.04-0.95-0.69-0.94-1.07
				C58.74,78.9,59.29,78.48,59.89,77.67z"/>
			<path class="st0" d="M39.01,80.04c-0.83,0.56-1.27,1.09-1.72,1.09c-0.38,0-1.11-0.66-1.06-0.92c0.08-0.46,0.59-1.1,1-1.17
				C37.64,78.97,38.15,79.52,39.01,80.04z"/>
			<path class="st0" d="M50.97,83.4c-0.56-0.83-1.09-1.27-1.09-1.71c0-0.38,0.67-1.1,0.93-1.05c0.46,0.09,1.1,0.59,1.18,1.01
				C52.06,82.03,51.5,82.54,50.97,83.4z"/>
			<path class="st0" d="M31.07,26.8c-0.82,0.62-1.27,1.22-1.67,1.19c-0.41-0.04-0.98-0.64-1.08-1.09c-0.06-0.29,0.58-1,0.95-1.04
				C29.7,25.82,30.19,26.31,31.07,26.8z"/>
			<path class="st0" d="M24.6,33.4c-0.84,0.6-1.26,1.13-1.71,1.15c-0.37,0.01-1.09-0.62-1.06-0.89c0.06-0.45,0.54-1.11,0.94-1.19
				C23.18,32.39,23.7,32.91,24.6,33.4z"/>
			<path class="st0" d="M72.8,35.86c-0.56-0.86-1.07-1.31-1.06-1.75c0.01-0.37,0.69-1.06,0.96-1.01c0.46,0.09,1.08,0.6,1.16,1.02
				C73.94,34.5,73.36,34.99,72.8,35.86z"/>
			<path class="st0" d="M17.31,57.21c-0.51-0.88-1-1.36-0.97-1.8c0.03-0.38,0.65-0.72,1.01-1.07c0.38,0.39,1.02,0.74,1.07,1.17
				C18.46,55.9,17.89,56.37,17.31,57.21z"/>
			<path class="st0" d="M20.36,41.78c-0.88,0.55-1.39,1.1-1.77,1.02c-0.42-0.08-0.92-0.72-0.98-1.17c-0.04-0.29,0.65-0.94,1.03-0.95
				C19.07,40.67,19.51,41.2,20.36,41.78z"/>
			<path class="st0" d="M20.49,39.14c-0.57-0.8-1.14-1.26-1.07-1.59c0.09-0.45,0.62-1,1.07-1.12c0.25-0.07,1,0.61,1.01,0.97
				C21.52,37.84,21,38.31,20.49,39.14z"/>
			<path class="st0" d="M79.59,47.69c-0.89,0.52-1.41,1.06-1.79,0.97c-0.42-0.1-0.9-0.73-0.97-1.19c-0.04-0.26,0.68-0.91,1.06-0.91
				C78.32,46.57,78.75,47.1,79.59,47.69z"/>
			<path class="st0" d="M47.63,82.07c-0.44,0.3-0.89,0.84-1.33,0.84c-0.36,0-0.99-0.62-1.02-0.99c-0.02-0.36,0.54-1.04,0.9-1.08
				c0.44-0.05,0.94,0.42,1.42,0.67C47.62,81.69,47.63,81.88,47.63,82.07z"/>
			<path class="st0" d="M18.8,50.87c-0.85,0.56-1.3,1.08-1.73,1.07c-0.37-0.01-1.04-0.69-1-0.99c0.07-0.45,0.59-1.09,1.01-1.16
				C17.46,49.72,17.95,50.3,18.8,50.87z"/>
			<path class="st0" d="M40.73,19.12c-0.6-0.73-1.26-1.18-1.21-1.54c0.07-0.49,0.67-0.91,1.05-1.36c0.43,0.4,1.09,0.74,1.22,1.23
				C41.88,17.79,41.26,18.33,40.73,19.12z"/>
			<path class="st0" d="M82.7,70.11c-0.79,0.57-1.28,1.18-1.65,1.12c-0.47-0.08-1.09-0.66-1.19-1.12c-0.07-0.31,0.65-1.11,1.02-1.12
				C81.37,68.98,81.86,69.55,82.7,70.11z"/>
		</g>
	</g>
</g>
</svg>
