<?xml version="1.0" encoding="utf-8"?>
<!-- Generator: Adobe Illustrator 25.0.1, SVG Export Plug-In . SVG Version: 6.00 Build 0)  -->
<svg version="1.1" id="Layer_1" xmlns="http://www.w3.org/2000/svg" xmlns:xlink="http://www.w3.org/1999/xlink" x="0px" y="0px"
	 viewBox="0 0 100 100" style="enable-background:new 0 0 100 100;" xml:space="preserve">
<style type="text/css">
	.st0{fill:#007A3E;}
</style>
<path class="st0" d="M61.35,26.69c-0.88,0.99-1.77,1.89-2.51,2.89c-0.22,0.3-0.1,0.91-0.03,1.37c0.31,2.06-0.77,3.94-2.66,4.56
	c-1.91,0.63-3.99-0.26-4.85-2.07c-0.84-1.76-0.35-4,1.38-4.91c0.98-0.51,2.37-0.74,3.42-0.48c1.02,0.25,1.56,0.11,2.19-0.57
	c0.69-0.73,1.44-1.41,2.29-2.23c-1.87-2.58-4.31-4.17-7.29-4.85c-4.58-1.04-8.6,0.14-12.01,3.37c-0.15,0.14-0.26,0.37-0.42,0.42
	c-0.48,0.14-0.98,0.21-1.47,0.3c0.06-0.53-0.08-1.23,0.21-1.55c2.07-2.34,4.69-3.83,7.76-4.41c5.78-1.1,10.53,0.79,14.54,5.25
	c1.86-2.19,3.68-4.33,4.55-7.08c0.52-1.66-0.09-2.59-1.79-2.33c-2.02,0.3-3.99,1.01-5.97,1.56c-0.39,0.11-0.75,0.43-1.12,0.42
	c-0.38-0.01-0.97-0.22-1.08-0.49c-0.11-0.28,0.15-0.97,0.43-1.1c2.61-1.23,5.29-2.36,8.25-2.23c2.58,0.11,3.77,1.86,3.13,4.37
	c-0.73,2.88-2.54,5.14-4.41,7.33c-0.66,0.77-0.86,1.34-0.37,2.37c0.66,1.39,1.17,2.95,1.3,4.47c0.13,1.56,0.68,2.69,1.62,3.89
	c1.51,1.94,2.99,3.98,4.01,6.2c1.62,3.51-0.23,5.95-4.05,5.31c-2.55-0.43-5.12-1.24-7.45-2.36c-3.31-1.6-6.44-3.58-9.56-5.53
	c-0.88-0.55-1.42-0.55-2.25,0c-1.8,1.2-3.69,2.28-5.78,3.54c1.97,1.69,4.89,2.84,3.68,6.34c3.55,0,6.87,0,10.44,0
	c0-0.74-0.13-1.56,0.05-2.3c0.13-0.52,0.68-0.93,1.04-1.39c0.25,0.47,0.69,0.92,0.72,1.4c0.09,1.56,0.1,3.14-0.02,4.7
	c-0.04,0.58-0.46,1.56-0.81,1.61c-1.16,0.18-0.92-0.86-0.99-1.58c-0.01-0.1-0.03-0.2-0.07-0.4c-3.34,0-6.69,0-10.12,0
	c-0.25,2.22-0.22,4.33,1.92,5.64c0.69,0.42,1.64,0.4,2.42,0.72c0.43,0.18,0.74,0.63,1.1,0.97c-0.41,0.28-0.8,0.77-1.22,0.8
	c-3.18,0.21-6.01-2.49-6.12-5.83c-0.06-1.87-0.06-3.74,0-5.61c0.03-0.91-0.43-1.36-1.01-2c-2-2.2-4-2.01-6.49-0.81
	c-1.58,0.76-3.5,1.02-5.28,1.1c-2.61,0.11-4.14-1.7-3.27-4.14c0.83-2.32,2.33-4.42,3.62-6.56c0.14-0.24,0.84-0.14,1.28-0.2
	c0.01,0.46,0.2,1.01,0.01,1.35c-0.74,1.26-1.77,2.38-2.35,3.69c-0.48,1.07-0.48,2.36-0.69,3.55c1.16,0.09,2.37,0.45,3.47,0.23
	c1.9-0.39,3.73-1.14,5.76-1.79c-2.2-3.34-3.11-6.74-2.68-10.45c0.02-0.15-0.02-0.33,0.05-0.45c1.17-2.28-0.09-3.75-1.52-5.38
	c-1.42-1.62-2.6-3.48-3.69-5.34c-0.54-0.92-0.8-2.08-0.9-3.16c-0.15-1.71,0.91-2.94,2.61-3.13c3.48-0.4,6.53,1.02,9.54,2.46
	c0.26,0.12,0.28,0.74,0.41,1.13c-0.43,0.13-0.92,0.47-1.27,0.36c-1.49-0.47-2.91-1.17-4.4-1.61c-1.1-0.33-2.27-0.51-3.42-0.55
	c-1.44-0.05-2.05,0.66-1.56,2.01c0.54,1.5,1.19,3.08,2.21,4.26c2.74,3.16,5.55,6.3,8.62,9.13c4.66,4.29,9.9,7.82,15.52,10.8
	c0.95,0.5,1.46,0.42,2.14-0.39C63.49,37.23,64.19,30.94,61.35,26.69z M46.62,36.83c-3.03-2.55-5.82-4.9-8.72-7.35
	c-0.91,4.15-0.35,7.81,2.23,11.19C42.33,39.37,44.4,38.14,46.62,36.83z M61.17,43.44c2.03,0.43,4.11,1.01,6.24,1.26
	c1.45,0.17,2.03-0.61,1.67-1.95c-0.72-2.69-2.46-4.76-4.05-6.69C63.77,38.47,62.56,40.77,61.17,43.44z M57.02,31.72
	c-0.01-1.18-0.92-2.09-2.11-2.1c-1.17-0.01-2.12,0.9-2.15,2.07c-0.03,1.2,1,2.23,2.19,2.2C56.1,33.85,57.03,32.88,57.02,31.72z"/>
<path class="st0" d="M13.59,75.37c0.32-1.45,1.09-2.14,2.09-2.61c0.88-0.41,1.37-0.94,1.03-2c-0.15-0.47-0.13-1.01-0.08-1.51
	c0.19-1.87,0.36-3.58-1.91-4.55c-1.04-0.44-1.07-1.76-0.49-2.82c0.58-1.06,1.19-2.11,1.81-3.15c1.02-1.7,2.11-2.06,3.77-1.04
	c1.05,0.65,1.87,0.78,2.79-0.16c0.38-0.39,0.89-0.7,1.4-0.88c1.65-0.58,2.7-1.38,2.48-3.45c-0.13-1.19,0.92-2,2.19-2.07
	c1.41-0.07,2.83-0.09,4.24,0c1.52,0.1,2.34,1,2.24,2.65c-0.08,1.32,0.31,2.11,1.61,2.41c0.29,0.07,0.57,0.23,0.81,0.41
	c1.59,1.19,3.11,2.26,5.2,0.72c0.4-0.29,1.89,0.29,2.4,0.89c0.94,1.09,1.59,2.45,2.25,3.75c0.66,1.3,0.23,2.51-1.23,3.27
	c-1.09,0.57-1.6,1.25-1.29,2.49c0.11,0.43,0.14,0.92,0.07,1.36c-0.27,1.82-0.26,3.37,1.85,4.29c1.06,0.47,1.12,1.77,0.59,2.82
	c-0.64,1.26-1.34,2.49-2.12,3.67c-0.87,1.32-2.01,1.53-3.54,0.57c-0.99-0.62-1.78-0.77-2.65,0.14c-0.34,0.35-0.8,0.64-1.27,0.81
	c-1.74,0.66-3.01,1.46-2.76,3.75c0.13,1.21-1.06,1.87-2.31,1.91c-1.16,0.04-2.32,0.03-3.49,0.01c-1.99-0.03-2.93-0.88-2.86-2.86
	c0.04-1.2-0.27-1.91-1.46-2.21c-0.43-0.11-0.86-0.34-1.21-0.61c-1.48-1.16-2.91-2.05-4.76-0.53c-0.34,0.28-1.53,0.16-1.8-0.19
	C15.9,78.97,14.78,77.15,13.59,75.37z M43.52,79.32c0.63-1.09,1.12-2.09,1.76-2.99c0.73-1.03,0.61-1.69-0.57-2.21
	c-1.09-0.48-1.8-1.23-1.75-2.56c0.06-1.66-0.08-3.34,0.06-4.99c0.06-0.72,0.43-1.6,0.97-2.05c1.88-1.59,1.93-1.53,0.64-3.75
	c-0.23-0.39-0.37-0.89-0.7-1.15c-0.3-0.25-0.98-0.48-1.19-0.32c-1.91,1.47-3.54,0.99-5.13-0.51c-0.29-0.27-0.66-0.5-1.04-0.61
	c-2.45-0.69-3.61-2.22-3.27-4.8c0.01-0.07-0.1-0.16-0.27-0.43c-0.98,0-2.09,0.07-3.19-0.02c-1.26-0.1-1.77,0.37-1.62,1.64
	c0.19,1.59-0.53,2.56-2.04,3.1c-0.84,0.3-1.73,0.7-2.38,1.29c-1.53,1.38-3.01,1.67-4.76,0.42c-0.27-0.19-1.13-0.05-1.31,0.21
	c-0.76,1.11-1.37,2.32-2.19,3.76c3.55,0.85,2.86,3.45,3.04,6.01c0.18,2.6-0.18,4.44-2.69,5.5c-0.07,0.03-0.08,0.18-0.16,0.38
	c0.77,1.31,1.57,2.68,2.4,4.1c0.79-0.44,1.33-0.95,1.93-1.02c0.88-0.11,1.88-0.13,2.67,0.2c1.42,0.61,2.79,1.41,4.05,2.31
	c0.62,0.45,1.25,1.25,1.37,1.97c0.39,2.43,0.3,2.44,2.82,2.44c0.2,0,0.41-0.03,0.61,0c1.35,0.2,1.98-0.26,1.8-1.72
	c-0.19-1.52,0.61-2.41,2.01-2.99c1.11-0.46,2.17-1.09,3.13-1.82c1.17-0.88,2.25-1.01,3.47-0.21C42.4,78.77,42.86,78.97,43.52,79.32z
	"/>
<path class="st0" d="M78.26,73.98c2.63,2.63,5.22,5.18,7.76,7.78c0.51,0.52,1.02,1.18,1.22,1.86c0.36,1.24-0.14,2.31-1.24,2.99
	c-1.24,0.76-2.45,0.58-3.46-0.42c-2.28-2.23-4.52-4.49-6.77-6.75c-0.39-0.39-0.71-0.85-1.12-1.33c-3.88,2.76-7.97,3.63-12.38,2.55
	c-3.36-0.82-6.07-2.7-8.1-5.51c-4.11-5.7-3.5-13.46,1.45-18.47c4.89-4.94,12.6-5.65,18.34-1.7C79.51,58.79,82.17,66.56,78.26,73.98z
	 M65.81,79.25c6.89,0.02,12.45-5.48,12.48-12.36c0.03-6.98-5.5-12.56-12.44-12.57c-6.87-0.01-12.47,5.54-12.49,12.37
	C53.33,73.67,58.85,79.23,65.81,79.25z M77.21,75.53c-0.45,0.5-0.84,0.94-1.3,1.46c2.63,2.63,5.17,5.22,7.79,7.73
	c0.29,0.28,1.02,0.1,1.55,0.14c-0.06-0.49,0.07-1.16-0.2-1.44C82.49,80.77,79.87,78.19,77.21,75.53z"/>
<path class="st0" d="M24.74,69.06c0-3.37,2.69-6.06,6.06-6.06c3.36,0,6.09,2.69,6.13,6.03c0.04,3.35-2.83,6.22-6.17,6.17
	C27.4,75.15,24.74,72.44,24.74,69.06z M26.59,68.95c-0.06,2.41,1.83,4.4,4.21,4.41c2.28,0.01,4.26-1.92,4.3-4.22
	c0.04-2.3-1.85-4.25-4.18-4.3C28.53,64.81,26.65,66.59,26.59,68.95z"/>
<path class="st0" d="M75.93,66.87c-0.21,5.49-4.73,9.93-10.18,9.88c-5.44-0.04-9.93-4.59-9.89-10.01c0.04-5.45,4.56-9.93,9.99-9.91
	c0.6,0,1.25,0.02,1.79,0.24c0.37,0.15,0.6,0.65,0.89,0.99c-0.37,0.26-0.73,0.7-1.12,0.74c-0.94,0.1-1.92-0.12-2.85,0.02
	c-4.58,0.69-7.51,4.93-6.67,9.52c0.8,4.36,5.13,7.27,9.48,6.38c4.57-0.93,7.37-5.24,6.35-9.76c-0.07-0.29-0.27-0.6-0.22-0.87
	c0.09-0.56,0.29-1.09,0.45-1.64c0.44,0.38,1.09,0.69,1.26,1.17C75.57,64.67,75.7,65.79,75.93,66.87z"/>
<path class="st0" d="M71.68,58.52c0.48,0.74,0.87,1.21,1.07,1.75c0.05,0.12-0.78,0.76-0.85,0.7c-0.47-0.35-0.9-0.8-1.18-1.31
	C70.64,59.54,71.19,59.08,71.68,58.52z"/>
</svg>
