<?xml version="1.0" encoding="utf-8"?>
<!-- Generator: Adobe Illustrator 25.0.1, SVG Export Plug-In . SVG Version: 6.00 Build 0)  -->
<svg version="1.1" id="Layer_1" xmlns="http://www.w3.org/2000/svg" xmlns:xlink="http://www.w3.org/1999/xlink" x="0px" y="0px"
	 viewBox="0 0 500 500" style="enable-background:new 0 0 500 500;" xml:space="preserve">
<style type="text/css">
	.st0{fill:#0E231A;}
	.st1{fill:#20517E;}
</style>
<path class="st0" d="M194.4,254.7c-0.7-3.1-1.4-5.4-1.8-7.7c-0.6-3.6,0.3-6.5,4.3-7.2c3.7-0.6,5.4,1.9,6,5.2
	c1.9,9.4,5.9,17.7,12.7,24.5c13.3,13.3,29.4,17.5,47.3,12.5c18-5.1,29.1-17.5,33.5-35.7c0.9-3.7,1.9-7,6.5-6.5
	c3.5,0.4,4.9,3.8,3.8,8.8c-0.1,0.3-0.1,0.7-0.2,1c-1.7,4.1-0.4,5.4,4,6.6c11.7,3.3,23.2,7.1,34.5,11.5c4.5,1.7,8.6,5.1,12.2,8.5
	c8.7,8.5,8.9,19.4-0.4,27c-7,5.7-15.2,10.4-23.6,13.5c-26.5,9.6-54.2,12-82.2,12.1c-4.4,0-6.3-2.2-6.2-6.5c0.1-7.7-0.1-15.3,0.1-23
	c0.1-3.4-0.8-5-4.5-5.6c-16.7-2.7-29.6-11.3-39.2-25.2c-1.1-1.5-3.8-3-5.5-2.7c-13.3,2.2-26.4,5.6-38.3,12.4
	c-13.7,7.9-14,15.9,0.2,23.1c9.3,4.7,19.5,7.5,29.5,10.6c1.5,0.5,4.3-1.5,5.9-3.1c6.2-6,15.2-7.3,22.5-2.8c6.9,4.3,10,12.9,7.6,20.5
	c-2.7,8.2-10.4,13.4-18.9,12.4c-7.2-0.9-12.6-4.7-14.8-11.7c-1.1-3.4-3.1-4.4-6.2-5.4c-9.5-3-19.1-6-28.2-10c-5-2.2-9.6-6-13.5-10
	c-6.8-7-6.6-16.5-0.4-24c6.3-7.6,15-11.7,24-14.8c8-2.8,16.3-4.6,24.5-6.9C191,255.6,192.5,255.2,194.4,254.7z M264.8,318.2
	c25.2-1.4,47.3-4.1,68.2-12.6c6.2-2.5,12-6.4,17.3-10.6c4-3.1,3.7-7.3,0-10.9c-3.1-2.9-6.6-6-10.5-7.4c-11-4.1-22.4-7.3-33.6-10.9
	c-3.7-1.2-6-0.1-8.2,3.3c-7.7,11.7-18.7,19.2-32.1,23.2c-3.4,1-8.2,1-9.9,3.3c-1.8,2.4-0.7,7-0.7,10.6
	C255.1,318.9,255.1,318.9,264.8,318.2z M205.8,331.4c5.4,0,10.2-4.7,10.3-10.1c0.1-5.4-4.6-10.2-10.1-10.3
	c-5.3-0.1-10.4,4.8-10.4,10.1C195.6,326.4,200.5,331.3,205.8,331.4z"/>
<path class="st1" d="M306,233.6c-2.3,0-4.2,0-6.6,0c0-10.2,0.1-20.1-0.1-30.1c-0.1-2.6,1.8-6.6-2.9-7.1c-3.8-0.4-7.8,3.9-7.8,8.1
	c0,6.8,0.1,13.7,0,20.5c-0.3,20.7-16.1,37.9-35.6,38.6c-23,0.9-40.5-14-42.1-36.1c-0.5-7.3-0.4-14.7-0.2-22c0.1-4-1.1-6.4-4.8-8.2
	c-3.5-1.7-5-0.9-5.1,2.9c0,7.2,0,14.3,0,21.5c0,4,0,8,0,12.2c-2.5,0-4.6,0-7.2,0c0-5.4,0-10.6,0-15.9c0-7.5,0.2-15-0.1-22.5
	c-0.2-4.9,1.9-6.7,6.5-6.4c1,0.1,2,0.1,3,0c5.5-0.4,7.9-3,7.9-8.5c0-4.2,0-8.3,0.1-12.5c0.4-21.1,17.4-37.5,38.8-37.4
	c21.8,0.1,38.6,16.5,38.8,37.9c0,3.7,0,7.3,0,11c0,6.9,2.3,9.2,9.4,9.5c8.2,0.3,8.2,0.3,8.2,8.5c0,10.5,0,21,0,31.5
	C306.2,230.6,306.1,232,306,233.6z M281.1,222.7c2.6-7.5,1.4-9.4-4.4-13.1c-6.8-4.4-14-4.5-21.5-4.4c-1.6,0-3.3-2-4.9-3
	c1.7-1,3.3-2.8,5-2.9c8-0.5,16-0.9,23,4.2c0.8,0.6,2.1,0.5,3.2,0.7c1.9-8.7,1.3-9.1-5.5-13.5c-6.7-4.3-13.9-3.6-21.2-3.9
	c-1.5-0.1-3-1.9-4.5-2.9c1.4-1.1,2.8-3.1,4.2-3.1c7.9-0.3,16-1.2,23.1,4c1,0.7,2.3,0.9,3.5,1.3c2.5-8,1.5-9.4-4.4-13.2
	c-6.8-4.4-14-4.4-21.6-4.5c-1.6,0-3.3-2-4.9-3c1.7-1.1,3.3-3,5-3.1c7.8-0.4,15.7-0.9,22.5,4.2c0.9,0.7,2.3,0.7,3.6,1.1
	c0.6-5.3-1-10.5-5-16.2c-7.7-10.7-18.3-15.5-31.2-13.7c-11.9,1.7-20.3,8.7-25.2,19.7c-1.6,3.5-0.7,5,3.1,4.8c2.3-0.1,4.8-0.4,7,0.1
	c1.6,0.4,2.9,2.1,4.3,3.2c-1.3,1-2.6,2.6-4,2.9c-2.9,0.5-6,0.3-9,0.2c-4.4-0.1-4.1,3-4,5.8c0.1,2.8-0.9,6.4,4,6.4
	c3.2-0.1,6.4-0.3,9.5,0.1c1.3,0.2,2.3,1.8,3.5,2.8c-1.2,1.1-2.2,3-3.6,3.2c-3.1,0.5-6.3,0.3-9.5,0.1c-4.6-0.2-3.9,3.1-3.9,5.8
	c0,2.8-1,6.4,3.9,6.3c3.2-0.1,6.4-0.2,9.5,0.2c1.3,0.2,2.4,1.7,3.6,2.6c-1.2,1.1-2.3,3-3.6,3.2c-3.1,0.5-6.3,0-9.5,0.3
	c-1.3,0.1-3.1,0.8-3.6,1.8c-2.7,5.4,0.2,10.2,6.1,10.2c2.3,0,4.7-0.3,7,0.2c1.3,0.3,2.4,1.8,3.5,2.7c-1.2,1.1-2.3,2.8-3.6,3
	c-3.1,0.5-6.3,0.2-9.5,0.2c-2.7,0-3.8,1-3.7,3.9c0.8,14.5,13.5,27.8,28.6,29.5c15.1,1.7,30.5-8.2,34.6-22.2c0.9-3-0.1-4.3-2.6-6
	c-7-4.6-14.6-5.9-22.8-5.4c-1.6,0.1-3.4-1.7-5.1-2.6c1.7-1.1,3.4-3,5.2-3.1c7.9-0.4,16.1-1,23,4.4
	C279.1,222.5,280.2,222.4,281.1,222.7z"/>
<path d="M211.6,321.4c-2.7,1.8-4.5,3.7-5.9,3.5c-1.5-0.2-2.7-2.5-4.1-3.9c1.5-1.4,2.9-3.6,4.6-3.9
	C207.5,317,209.1,319.4,211.6,321.4z"/>
</svg>
