<?xml version="1.0" encoding="utf-8"?>
<!-- Generator: Adobe Illustrator 25.0.1, SVG Export Plug-In . SVG Version: 6.00 Build 0)  -->
<svg version="1.1" id="Layer_1" xmlns="http://www.w3.org/2000/svg" xmlns:xlink="http://www.w3.org/1999/xlink" x="0px" y="0px"
	 viewBox="0 0 100 100" style="enable-background:new 0 0 100 100;" xml:space="preserve">
<style type="text/css">
	.st0{fill:#007A3E;}
</style>
<path class="st0" d="M68.6,79.89c1.37-0.88,2.69-1.72,3.98-2.6c0.71-0.48,1.46-1.01,2.1-0.07c0.62,0.91-0.1,1.5-0.8,1.97
	c-1.13,0.76-2.27,1.52-3.52,2.35c1.05,1.7,0.09,2.84-1.1,3.95c-1.12,1.04-2.19,2.12-3.23,3.23c-0.9,0.98-1.64,0.88-2.54-0.03
	c-4.03-4.08-8.08-8.15-12.17-12.17c-1.07-1.05-0.99-1.82,0.06-2.77c1.2-1.1,2.32-2.28,3.45-3.43c0.83-0.84,1.67-1.4,2.97-1.05
	c0.31,0.09,0.92-0.42,1.18-0.81c1.88-2.84,3.68-5.71,5.53-8.57c0.73-1.13,1.85-1.84,3.1-1.4c0.94,0.33,1.84,1.16,2.41,2.01
	c0.36,0.51,0.16,1.47,0.07,2.21c-0.18,1.36-0.57,2.68-0.68,4.05c-0.06,0.73,0.05,1.79,0.51,2.14c0.44,0.34,1.56,0.16,2.16-0.17
	c4.29-2.34,6.93-5.97,8.13-10.69c0.36-1.42,0.63-2.88,1.04-4.28c0.22-0.76,0.54-1.55,1.02-2.16c1.03-1.33,2.84-1.74,4.25-1.13
	c1.43,0.63,2.13,1.94,1.89,3.77c-0.98,7.9-4.16,14.78-9.59,20.6c-0.21,0.22-0.39,0.57-0.64,0.63c-0.57,0.13-1.16,0.11-1.74,0.14
	c0.05-0.59,0.03-1.19,0.18-1.75c0.09-0.3,0.47-0.52,0.71-0.78c4.85-5.27,7.79-11.45,8.7-18.56c0.1-0.71,0.57-1.77-0.71-1.95
	c-1.13-0.15-1.59,0.63-1.81,1.64c-0.36,1.58-0.74,3.15-1.16,4.72c-1.43,5.32-4.55,9.33-9.39,11.98c-1.5,0.83-3,0.99-4.43-0.06
	c-1.41-1.04-1.81-2.46-1.44-4.18c0.33-1.54,0.57-3.1,0.77-4.66c0.05-0.38-0.21-0.8-0.33-1.19c-0.41,0.18-1.01,0.25-1.22,0.57
	c-1.99,3-3.92,6.04-5.82,9.1c-0.18,0.3-0.13,1.01,0.11,1.26C63.18,74.48,65.84,77.12,68.6,79.89z M64.82,86.33
	c1.11-1.03,2.33-2.15,3.48-3.22c-3.84-3.83-7.64-7.62-11.22-11.2c-1.16,1.03-2.44,2.14-3.57,3.13
	C57.38,78.89,61.17,82.68,64.82,86.33z"/>
<path class="st0" d="M45.78,75.38c-1.43-1.37-2.63-2.52-3.76-3.6c-3.67,3.69-7.45,7.49-11.21,11.27c1.05,0.99,2.26,2.12,3.72,3.49
	c0.98-1.03,2.18-2.3,3.4-3.56c0.58-0.6,1.23-1.29,2.06-0.5c0.9,0.87,0.16,1.54-0.46,2.16c-1.33,1.33-2.7,2.62-3.97,3.99
	c-1.01,1.1-1.81,1-2.76-0.06c-1.05-1.16-2.18-2.27-3.33-3.34c-1.11-1.03-1.74-2.13-0.85-3.68c-0.42-0.29-0.78-0.54-1.15-0.78
	c-9.72-6.17-15.31-14.98-16.89-26.35c-0.3-2.14,0.64-3.71,2.42-4.15c1.77-0.43,3.88,0.71,4.46,2.59c0.53,1.68,0.87,3.43,1.3,5.16
	c1.19,4.77,3.88,8.44,8.23,10.77c0.58,0.31,1.6,0.46,2.04,0.14c0.45-0.32,0.63-1.31,0.58-1.98c-0.14-1.51-0.53-2.99-0.77-4.49
	c-0.32-1.93,0.36-3.27,1.89-3.86c1.52-0.59,2.89-0.04,3.97,1.63c1.79,2.76,3.57,5.54,5.33,8.33c0.39,0.63,0.73,0.84,1.57,0.71
	c0.68-0.11,1.62,0.24,2.16,0.71c1.45,1.26,2.75,2.7,4.13,4.05c0.76,0.74,0.84,1.44,0.05,2.21c-1.45,1.42-2.83,2.92-4.34,4.26
	c-0.4,0.36-1.4,0.55-1.79,0.3c-0.84-0.56-0.39-1.33,0.22-1.9C43.24,77.74,44.49,76.58,45.78,75.38z M30.39,79.88
	c2.75-2.77,5.37-5.39,7.93-8.05c0.25-0.26,0.38-0.96,0.2-1.24c-1.91-3.11-3.89-6.18-5.89-9.23c-0.19-0.3-0.73-0.37-1.11-0.55
	c-0.15,0.38-0.47,0.78-0.43,1.13c0.18,1.51,0.42,3.01,0.75,4.49c0.39,1.8,0.11,3.36-1.45,4.46c-1.57,1.12-3.15,0.76-4.7-0.13
	c-5.1-2.93-8.14-7.34-9.39-13.03c-0.31-1.39-0.56-2.8-1.08-4.11c-0.19-0.49-1.07-0.71-1.63-1.06c-0.24,0.52-0.71,1.06-0.68,1.56
	c0.09,1.31,0.31,2.62,0.62,3.9C15.88,67.77,21.7,74.82,30.39,79.88z"/>
<path class="st0" d="M33.47,26.6c-0.38-2.09,0.38-3.4,2.22-4.65c1.64-1.11,2.78-3.11,2.82-5.29c0.02-1.58,0.57-2.61,1.95-3.28
	c0.73-0.36,1.43-0.76,2.11-1.21c1.18-0.8,2.25-0.69,3.54-0.06c2.21,1.1,4.6,1.09,6.81-0.02c1.23-0.62,2.27-0.72,3.4,0.04
	c0.46,0.31,0.93,0.64,1.45,0.83c2.51,0.88,2.93,2.86,2.64,5.14c-0.05,0.42-0.54,0.98-0.94,1.11c-0.3,0.1-0.82-0.38-1.16-0.68
	c-0.16-0.13-0.26-0.49-0.21-0.71c0.55-2.48-1.57-2.83-2.99-3.67c-0.32-0.18-0.94,0.01-1.37,0.18c-2.84,1.15-5.66,1.13-8.51,0.03
	c-0.52-0.2-1.27-0.22-1.76,0c-1.51,0.68-2.45,1.49-2.8,3.56c-0.39,2.39-1.73,4.83-4.06,6.35c-0.41,0.27-0.75,0.88-0.84,1.38
	c-0.13,0.79-0.11,1.63-0.01,2.42c0.05,0.38,0.31,0.84,0.62,1.06c2.66,1.95,4.16,4.56,4.5,7.84c0.03,0.28,0.09,0.67,0.28,0.8
	c0.75,0.52,1.6,0.89,2.33,1.43c1.04,0.78,1.64-0.26,2.45-0.43c2.53-0.55,5.13-0.89,7.55,0.3c0.92,0.45,1.5,0.4,2.34-0.07
	c1.37-0.76,2.08-1.53,2.42-3.33c0.48-2.46,1.75-4.93,4.15-6.46c0.4-0.26,0.75-0.9,0.79-1.4c0.13-1.68,0.38-3.4-1.8-4.24
	c-0.74-0.29-1.35-1.26-0.55-2.14c0.68-0.77,1.32-0.34,1.91,0.3c0.34,0.36,0.83,0.58,1.27,0.82c1.06,0.55,1.54,1.42,1.53,2.6
	c0,0.96-0.04,1.93,0.01,2.9c0.08,1.49-0.63,2.36-1.85,3.19c-1.92,1.32-3.11,3.32-3.25,5.67c-0.1,1.49-0.54,2.52-1.88,3.17
	c-0.68,0.34-1.36,0.7-1.97,1.13c-1.32,0.92-2.47,0.81-3.94,0.1c-2.04-0.99-4.36-0.99-6.42,0.01c-1.39,0.67-2.53,0.85-3.81-0.05
	c-0.66-0.46-1.38-0.87-2.11-1.22c-1.35-0.65-1.85-1.69-1.84-3.18c0.02-2.16-1.16-4.16-2.69-5.19C33.82,30.25,33.06,28.83,33.47,26.6
	z"/>
<path class="st0" d="M40.14,44.05c0.2,1.55-0.25,2.61-1.64,3.59c-0.93,0.66-1.59,2.14-1.79,3.35c-0.41,2.54-3.47,4.32-5.87,3.52
	c-1.32-0.44-3.03-0.4-4.36,0.04c-2.21,0.73-5.31-1.08-5.78-3.32c-0.29-1.4-1.17-2.91-2.25-3.87c-1.72-1.54-1.72-5.15,0-6.67
	c1.08-0.95,1.95-2.46,2.25-3.87c0.46-2.24,3.61-4.05,5.77-3.33c1.36,0.45,3.11,0.44,4.45-0.01c2.14-0.72,5.39,1.1,5.77,3.36
	c0.21,1.26,0.79,2.82,1.74,3.52C39.85,41.39,40.37,42.47,40.14,44.05z M28.5,51.56c1.13,0.21,2.1,0.29,2.98,0.6
	c1.28,0.45,2.38-0.38,2.88-1.59c0.73-1.76,1.79-3.42,2.93-4.95c0.64-0.86,0.87-2.41,0.01-3.12c-1.66-1.36-2.64-3.13-3.01-5.23
	c-0.18-1.02-1.62-1.62-2.62-1.52c-1.95,0.19-3.94,0.22-5.9,0.03c-1.06-0.11-2.58,0.46-2.73,1.55c-0.3,2.09-1.34,3.77-2.9,5.13
	c-0.85,0.74-0.88,2.41-0.03,3.12c1.61,1.34,2.61,3.03,2.92,5.11c0.15,0.99,1.64,1.92,2.57,1.64C26.6,52,27.62,51.78,28.5,51.56z"/>
<path class="st0" d="M81.71,44.03c0.24,1.57-0.32,2.57-1.63,3.6c-0.98,0.77-1.63,2.32-1.86,3.63c-0.39,2.18-3.55,3.98-5.66,3.35
	c-1.42-0.43-3.19-0.42-4.63,0c-2.09,0.63-5.46-1.17-5.64-3.37c-0.13-1.69-0.97-2.98-2.31-4.05c-0.56-0.45-1.09-1.26-1.14-1.94
	c-0.16-1.88-0.4-3.74,1.82-5.01c0.9-0.52,1.39-2.19,1.59-3.42c0.37-2.24,3.65-4.03,5.79-3.32c1.36,0.45,3.11,0.43,4.45-0.02
	c2.14-0.72,5.34,1.1,5.72,3.38c0.21,1.26,0.83,2.8,1.79,3.5C81.41,41.38,81.98,42.43,81.71,44.03z M70.15,51.52
	c1.1,0.27,2.16,0.48,3.21,0.79c0.93,0.28,2.4-0.65,2.56-1.64c0.32-2.07,1.32-3.77,2.92-5.1c0.86-0.7,0.81-2.39-0.04-3.13
	c-1.57-1.36-2.6-3.04-2.9-5.13c-0.14-0.99-1.67-1.9-2.6-1.56c-2.01,0.76-4.03,0.74-6.03,0.03c-0.98-0.35-2.43,0.45-2.62,1.48
	c-0.37,2.11-1.36,3.87-3.01,5.23c-0.78,0.64-0.84,2.39-0.07,3c1.72,1.38,2.75,3.15,3.09,5.34c0.14,0.92,1.65,1.73,2.55,1.44
	C68.15,51.99,69.12,51.79,70.15,51.52z"/>
<path class="st0" d="M49.56,19.8c3.76,0.06,6.88,3.21,6.85,6.96c-0.03,3.82-3.3,6.99-7.07,6.88c-3.79-0.12-6.86-3.31-6.77-7.03
	C42.65,22.84,45.83,19.75,49.56,19.8z M44.89,26.77c0.02,2.58,2.09,4.59,4.67,4.55c2.51-0.04,4.49-2.04,4.51-4.57
	c0.01-2.6-2-4.62-4.6-4.62C46.87,22.15,44.87,24.18,44.89,26.77z"/>
<path class="st0" d="M23.58,44.04c-0.01-2.86,2.25-5.13,5.1-5.14c2.84-0.01,5.16,2.28,5.17,5.09c0.02,2.8-2.33,5.15-5.14,5.16
	C25.9,49.16,23.58,46.86,23.58,44.04z M31.52,43.99c-0.01-1.54-1.24-2.8-2.78-2.83c-1.56-0.03-2.91,1.32-2.9,2.89
	c0.02,1.53,1.27,2.78,2.8,2.81C30.24,46.87,31.53,45.6,31.52,43.99z"/>
<path class="st0" d="M70.26,38.9c2.87,0,5.13,2.25,5.13,5.11c0,2.83-2.29,5.14-5.12,5.15c-2.8,0.01-5.16-2.34-5.16-5.14
	C65.1,41.22,67.43,38.9,70.26,38.9z M70.28,46.86c1.53-0.02,2.79-1.26,2.82-2.79c0.03-1.57-1.32-2.92-2.88-2.9
	c-1.53,0.02-2.77,1.27-2.79,2.81C67.41,45.58,68.69,46.86,70.28,46.86z"/>
</svg>
